<mxfile host="app.diagrams.net" agent="Mozilla/5.0 (Windows NT 10.0; Win64; x64) AppleWebKit/537.36 (KHTML, like Gecko) Chrome/126.0.0.0 Safari/537.36 OPR/112.0.0.0" version="24.7.16" pages="2">
  <diagram id="EJlE_TRH75UnAv38Fqyw" name="PÃ¡gina-1">
    <mxGraphModel dx="1044" dy="3080" grid="1" gridSize="10" guides="1" tooltips="1" connect="1" arrows="1" fold="1" page="1" pageScale="1" pageWidth="1169" pageHeight="827" math="0" shadow="0">
      <root>
        <mxCell id="0" />
        <mxCell id="1" parent="0" />
        <mxCell id="QNHk2WDSE1Qy1YumwTAw-1" value="Patient" style="swimlane;horizontal=0;" parent="1" vertex="1">
          <mxGeometry x="10" y="-2460" width="1110" height="70" as="geometry" />
        </mxCell>
        <mxCell id="QNHk2WDSE1Qy1YumwTAw-54" value="" style="endArrow=classic;html=1;rounded=0;fontSize=9;targetPerimeterSpacing=0;dashed=1;exitX=0.25;exitY=0;exitDx=0;exitDy=0;" parent="1" source="QNHk2WDSE1Qy1YumwTAw-5" edge="1">
          <mxGeometry width="50" height="50" relative="1" as="geometry">
            <mxPoint x="320" y="-2330" as="sourcePoint" />
            <mxPoint x="174" y="-2390" as="targetPoint" />
          </mxGeometry>
        </mxCell>
        <mxCell id="QNHk2WDSE1Qy1YumwTAw-55" value="" style="endArrow=classic;html=1;rounded=0;fontSize=9;targetPerimeterSpacing=0;dashed=1;entryX=0.75;entryY=0;entryDx=0;entryDy=0;" parent="1" target="QNHk2WDSE1Qy1YumwTAw-5" edge="1">
          <mxGeometry width="50" height="50" relative="1" as="geometry">
            <mxPoint x="220" y="-2390" as="sourcePoint" />
            <mxPoint x="183.9999999999999" y="-2380" as="targetPoint" />
          </mxGeometry>
        </mxCell>
        <mxCell id="QNHk2WDSE1Qy1YumwTAw-56" value="" style="endArrow=classic;html=1;rounded=0;fontSize=9;targetPerimeterSpacing=0;dashed=1;exitX=0.5;exitY=0;exitDx=0;exitDy=0;" parent="1" source="QNHk2WDSE1Qy1YumwTAw-23" edge="1">
          <mxGeometry width="50" height="50" relative="1" as="geometry">
            <mxPoint x="350" y="-2295" as="sourcePoint" />
            <mxPoint x="364" y="-2390" as="targetPoint" />
          </mxGeometry>
        </mxCell>
        <mxCell id="QNHk2WDSE1Qy1YumwTAw-57" value="ask symptomps" style="text;html=1;align=center;verticalAlign=middle;resizable=0;points=[];autosize=1;strokeColor=none;fillColor=none;fontSize=9;" parent="1" vertex="1">
          <mxGeometry x="90" y="-2360" width="90" height="20" as="geometry" />
        </mxCell>
        <mxCell id="QNHk2WDSE1Qy1YumwTAw-58" value="symptomps" style="text;html=1;align=center;verticalAlign=middle;resizable=0;points=[];autosize=1;strokeColor=none;fillColor=none;fontSize=9;" parent="1" vertex="1">
          <mxGeometry x="215" y="-2360" width="70" height="20" as="geometry" />
        </mxCell>
        <mxCell id="QNHk2WDSE1Qy1YumwTAw-59" value="inform date &lt;br&gt;and time" style="text;html=1;align=center;verticalAlign=middle;resizable=0;points=[];autosize=1;strokeColor=none;fillColor=none;fontSize=9;" parent="1" vertex="1">
          <mxGeometry x="355" y="-2370" width="70" height="40" as="geometry" />
        </mxCell>
        <mxCell id="QNHk2WDSE1Qy1YumwTAw-61" value="" style="ellipse;whiteSpace=wrap;html=1;aspect=fixed;strokeWidth=1;fillColor=none;" parent="1" vertex="1">
          <mxGeometry x="110" y="-1440" width="22.5" height="22.5" as="geometry" />
        </mxCell>
        <mxCell id="QNHk2WDSE1Qy1YumwTAw-62" value="Patient" style="swimlane;horizontal=0;" parent="1" vertex="1">
          <mxGeometry x="40" y="-1610" width="1089" height="70" as="geometry" />
        </mxCell>
        <mxCell id="QNHk2WDSE1Qy1YumwTAw-63" value="Add symptomps to order" style="rounded=1;whiteSpace=wrap;html=1;strokeWidth=1;fontSize=9;fillColor=none;" parent="1" vertex="1">
          <mxGeometry x="173.13" y="-1448.75" width="83.75" height="40" as="geometry" />
        </mxCell>
        <mxCell id="QNHk2WDSE1Qy1YumwTAw-64" value="" style="endArrow=classic;html=1;rounded=0;fontSize=9;targetPerimeterSpacing=0;dashed=1;exitX=0.25;exitY=0;exitDx=0;exitDy=0;" parent="1" source="QNHk2WDSE1Qy1YumwTAw-63" edge="1">
          <mxGeometry width="50" height="50" relative="1" as="geometry">
            <mxPoint x="193.5" y="-1445" as="sourcePoint" />
            <mxPoint x="193.9999999999999" y="-1540" as="targetPoint" />
          </mxGeometry>
        </mxCell>
        <mxCell id="QNHk2WDSE1Qy1YumwTAw-65" value="" style="endArrow=classic;html=1;rounded=0;fontSize=9;targetPerimeterSpacing=0;dashed=1;" parent="1" edge="1">
          <mxGeometry width="50" height="50" relative="1" as="geometry">
            <mxPoint x="240" y="-1540" as="sourcePoint" />
            <mxPoint x="239" y="-1450" as="targetPoint" />
          </mxGeometry>
        </mxCell>
        <mxCell id="QNHk2WDSE1Qy1YumwTAw-66" value="ask symptomps" style="text;html=1;align=center;verticalAlign=middle;resizable=0;points=[];autosize=1;strokeColor=none;fillColor=none;fontSize=9;" parent="1" vertex="1">
          <mxGeometry x="110" y="-1510" width="90" height="20" as="geometry" />
        </mxCell>
        <mxCell id="QNHk2WDSE1Qy1YumwTAw-67" value="symptomps" style="text;html=1;align=center;verticalAlign=middle;resizable=0;points=[];autosize=1;strokeColor=none;fillColor=none;fontSize=9;" parent="1" vertex="1">
          <mxGeometry x="235" y="-1510" width="70" height="20" as="geometry" />
        </mxCell>
        <mxCell id="QNHk2WDSE1Qy1YumwTAw-68" value="" style="endArrow=classic;html=1;rounded=0;fontSize=9;targetPerimeterSpacing=0;exitX=1;exitY=0.5;exitDx=0;exitDy=0;entryX=0;entryY=0.5;entryDx=0;entryDy=0;" parent="1" source="QNHk2WDSE1Qy1YumwTAw-61" target="QNHk2WDSE1Qy1YumwTAw-63" edge="1">
          <mxGeometry width="50" height="50" relative="1" as="geometry">
            <mxPoint x="249" y="-1440" as="sourcePoint" />
            <mxPoint x="299" y="-1490" as="targetPoint" />
          </mxGeometry>
        </mxCell>
        <mxCell id="QNHk2WDSE1Qy1YumwTAw-70" value="Diagnostic test" style="rounded=1;whiteSpace=wrap;html=1;strokeWidth=1;fontSize=9;fillColor=none;" parent="1" vertex="1">
          <mxGeometry x="305" y="-1448.75" width="83.75" height="40" as="geometry" />
        </mxCell>
        <mxCell id="QNHk2WDSE1Qy1YumwTAw-71" value="" style="endArrow=classic;html=1;rounded=0;fontSize=9;targetPerimeterSpacing=0;exitX=1;exitY=0.5;exitDx=0;exitDy=0;entryX=0;entryY=0.5;entryDx=0;entryDy=0;" parent="1" source="QNHk2WDSE1Qy1YumwTAw-63" target="QNHk2WDSE1Qy1YumwTAw-70" edge="1">
          <mxGeometry width="50" height="50" relative="1" as="geometry">
            <mxPoint x="319" y="-1430" as="sourcePoint" />
            <mxPoint x="369" y="-1480" as="targetPoint" />
          </mxGeometry>
        </mxCell>
        <mxCell id="QNHk2WDSE1Qy1YumwTAw-72" value="X" style="rhombus;whiteSpace=wrap;html=1;strokeWidth=1;fontSize=9;fillColor=none;" parent="1" vertex="1">
          <mxGeometry x="420.87" y="-1440" width="20" height="20" as="geometry" />
        </mxCell>
        <mxCell id="QNHk2WDSE1Qy1YumwTAw-73" value="" style="endArrow=classic;html=1;rounded=0;fontSize=9;targetPerimeterSpacing=0;exitX=1;exitY=0.5;exitDx=0;exitDy=0;entryX=0;entryY=0.5;entryDx=0;entryDy=0;" parent="1" target="QNHk2WDSE1Qy1YumwTAw-72" edge="1">
          <mxGeometry width="50" height="50" relative="1" as="geometry">
            <mxPoint x="388.7500000000001" y="-1430" as="sourcePoint" />
            <mxPoint x="400.87" y="-35" as="targetPoint" />
          </mxGeometry>
        </mxCell>
        <mxCell id="QNHk2WDSE1Qy1YumwTAw-74" value="Available results?" style="text;html=1;align=center;verticalAlign=middle;resizable=0;points=[];autosize=1;strokeColor=none;fillColor=none;fontSize=9;" parent="1" vertex="1">
          <mxGeometry x="385.87" y="-1460" width="90" height="20" as="geometry" />
        </mxCell>
        <mxCell id="QNHk2WDSE1Qy1YumwTAw-76" value="" style="endArrow=classic;html=1;rounded=0;fontSize=9;targetPerimeterSpacing=0;exitX=0.5;exitY=1;exitDx=0;exitDy=0;entryX=0.5;entryY=1;entryDx=0;entryDy=0;" parent="1" source="QNHk2WDSE1Qy1YumwTAw-72" target="QNHk2WDSE1Qy1YumwTAw-82" edge="1">
          <mxGeometry width="50" height="50" relative="1" as="geometry">
            <mxPoint x="350.87" y="85" as="sourcePoint" />
            <mxPoint x="430.87" y="-1395" as="targetPoint" />
            <Array as="points">
              <mxPoint x="431" y="-1370" />
              <mxPoint x="651" y="-1370" />
            </Array>
          </mxGeometry>
        </mxCell>
        <mxCell id="QNHk2WDSE1Qy1YumwTAw-77" value="no" style="text;html=1;align=center;verticalAlign=middle;resizable=0;points=[];autosize=1;strokeColor=none;fillColor=none;fontSize=9;" parent="1" vertex="1">
          <mxGeometry x="424.87" y="-1420" width="30" height="20" as="geometry" />
        </mxCell>
        <mxCell id="QNHk2WDSE1Qy1YumwTAw-79" value="" style="endArrow=classic;html=1;rounded=0;fontSize=9;targetPerimeterSpacing=0;exitX=1;exitY=0.5;exitDx=0;exitDy=0;entryX=0;entryY=0.5;entryDx=0;entryDy=0;" parent="1" source="QNHk2WDSE1Qy1YumwTAw-72" target="QNHk2WDSE1Qy1YumwTAw-80" edge="1">
          <mxGeometry width="50" height="50" relative="1" as="geometry">
            <mxPoint x="390.87" y="-1405" as="sourcePoint" />
            <mxPoint x="470.87" y="-1430" as="targetPoint" />
          </mxGeometry>
        </mxCell>
        <mxCell id="QNHk2WDSE1Qy1YumwTAw-80" value="Add results to order" style="rounded=1;whiteSpace=wrap;html=1;strokeWidth=1;fontSize=9;fillColor=none;" parent="1" vertex="1">
          <mxGeometry x="475.87" y="-1450" width="83.75" height="40" as="geometry" />
        </mxCell>
        <mxCell id="QNHk2WDSE1Qy1YumwTAw-82" value="Think of hypothesis" style="rounded=1;whiteSpace=wrap;html=1;strokeWidth=1;fontSize=9;fillColor=none;" parent="1" vertex="1">
          <mxGeometry x="609" y="-1450" width="83.75" height="40" as="geometry" />
        </mxCell>
        <mxCell id="QNHk2WDSE1Qy1YumwTAw-85" value="" style="endArrow=classic;html=1;rounded=0;fontSize=9;targetPerimeterSpacing=0;exitX=1;exitY=0.5;exitDx=0;exitDy=0;entryX=0;entryY=0.5;entryDx=0;entryDy=0;" parent="1" target="QNHk2WDSE1Qy1YumwTAw-82" edge="1">
          <mxGeometry width="50" height="50" relative="1" as="geometry">
            <mxPoint x="559.6200000000001" y="-1430.2" as="sourcePoint" />
            <mxPoint x="591.74" y="-1430.2" as="targetPoint" />
          </mxGeometry>
        </mxCell>
        <mxCell id="QNHk2WDSE1Qy1YumwTAw-86" value="X" style="rhombus;whiteSpace=wrap;html=1;strokeWidth=1;fontSize=9;fillColor=none;" parent="1" vertex="1">
          <mxGeometry x="733.99" y="-1440" width="20" height="20" as="geometry" />
        </mxCell>
        <mxCell id="QNHk2WDSE1Qy1YumwTAw-87" value="" style="endArrow=classic;html=1;rounded=0;fontSize=9;targetPerimeterSpacing=0;exitX=1;exitY=0.5;exitDx=0;exitDy=0;entryX=0;entryY=0.5;entryDx=0;entryDy=0;" parent="1" source="QNHk2WDSE1Qy1YumwTAw-82" target="QNHk2WDSE1Qy1YumwTAw-86" edge="1">
          <mxGeometry width="50" height="50" relative="1" as="geometry">
            <mxPoint x="701.8700000000001" y="-1430" as="sourcePoint" />
            <mxPoint x="713.99" y="-35" as="targetPoint" />
          </mxGeometry>
        </mxCell>
        <mxCell id="QNHk2WDSE1Qy1YumwTAw-88" value="hypothesis?" style="text;html=1;align=center;verticalAlign=middle;resizable=0;points=[];autosize=1;strokeColor=none;fillColor=none;fontSize=9;" parent="1" vertex="1">
          <mxGeometry x="709" y="-1460" width="70" height="20" as="geometry" />
        </mxCell>
        <mxCell id="QNHk2WDSE1Qy1YumwTAw-89" value="" style="endArrow=classic;html=1;rounded=0;fontSize=9;targetPerimeterSpacing=0;exitX=0.5;exitY=1;exitDx=0;exitDy=0;entryX=0.5;entryY=1;entryDx=0;entryDy=0;" parent="1" source="QNHk2WDSE1Qy1YumwTAw-86" target="QNHk2WDSE1Qy1YumwTAw-93" edge="1">
          <mxGeometry width="50" height="50" relative="1" as="geometry">
            <mxPoint x="663.99" y="85" as="sourcePoint" />
            <mxPoint x="743.99" y="-1395" as="targetPoint" />
            <Array as="points">
              <mxPoint x="744" y="-1370" />
              <mxPoint x="961" y="-1370" />
            </Array>
          </mxGeometry>
        </mxCell>
        <mxCell id="QNHk2WDSE1Qy1YumwTAw-90" value="no" style="text;html=1;align=center;verticalAlign=middle;resizable=0;points=[];autosize=1;strokeColor=none;fillColor=none;fontSize=9;" parent="1" vertex="1">
          <mxGeometry x="737.99" y="-1420" width="30" height="20" as="geometry" />
        </mxCell>
        <mxCell id="QNHk2WDSE1Qy1YumwTAw-91" value="" style="endArrow=classic;html=1;rounded=0;fontSize=9;targetPerimeterSpacing=0;exitX=1;exitY=0.5;exitDx=0;exitDy=0;entryX=0;entryY=0.5;entryDx=0;entryDy=0;" parent="1" source="QNHk2WDSE1Qy1YumwTAw-86" edge="1">
          <mxGeometry width="50" height="50" relative="1" as="geometry">
            <mxPoint x="703.99" y="-1405" as="sourcePoint" />
            <mxPoint x="788.9900000000001" y="-1430" as="targetPoint" />
          </mxGeometry>
        </mxCell>
        <mxCell id="QNHk2WDSE1Qy1YumwTAw-92" value="Add hypothesis to order" style="rounded=1;whiteSpace=wrap;html=1;strokeWidth=1;fontSize=9;fillColor=none;" parent="1" vertex="1">
          <mxGeometry x="789" y="-1450" width="83.75" height="40" as="geometry" />
        </mxCell>
        <mxCell id="QNHk2WDSE1Qy1YumwTAw-93" value="Send digital order" style="rounded=1;whiteSpace=wrap;html=1;strokeWidth=1;fontSize=9;fillColor=none;" parent="1" vertex="1">
          <mxGeometry x="919" y="-1450" width="83.75" height="40" as="geometry" />
        </mxCell>
        <mxCell id="QNHk2WDSE1Qy1YumwTAw-94" value="" style="endArrow=classic;html=1;rounded=0;fontSize=9;targetPerimeterSpacing=0;exitX=1;exitY=0.5;exitDx=0;exitDy=0;entryX=0;entryY=0.5;entryDx=0;entryDy=0;" parent="1" source="QNHk2WDSE1Qy1YumwTAw-92" target="QNHk2WDSE1Qy1YumwTAw-93" edge="1">
          <mxGeometry width="50" height="50" relative="1" as="geometry">
            <mxPoint x="899" y="-1350" as="sourcePoint" />
            <mxPoint x="949" y="-1400" as="targetPoint" />
          </mxGeometry>
        </mxCell>
        <mxCell id="QNHk2WDSE1Qy1YumwTAw-95" value="yes" style="text;html=1;align=center;verticalAlign=middle;resizable=0;points=[];autosize=1;strokeColor=none;fillColor=none;fontSize=9;" parent="1" vertex="1">
          <mxGeometry x="744" y="-1448.75" width="40" height="20" as="geometry" />
        </mxCell>
        <mxCell id="QNHk2WDSE1Qy1YumwTAw-96" value="yes" style="text;html=1;align=center;verticalAlign=middle;resizable=0;points=[];autosize=1;strokeColor=none;fillColor=none;fontSize=9;" parent="1" vertex="1">
          <mxGeometry x="433" y="-1448.75" width="40" height="20" as="geometry" />
        </mxCell>
        <mxCell id="QNHk2WDSE1Qy1YumwTAw-97" value="" style="ellipse;whiteSpace=wrap;html=1;aspect=fixed;strokeWidth=1;fillColor=none;" parent="1" vertex="1">
          <mxGeometry x="1039" y="-1441.25" width="22.5" height="22.5" as="geometry" />
        </mxCell>
        <mxCell id="QNHk2WDSE1Qy1YumwTAw-98" value="" style="endArrow=classic;html=1;rounded=0;fontSize=9;targetPerimeterSpacing=0;entryX=0;entryY=0.5;entryDx=0;entryDy=0;exitX=1;exitY=0.5;exitDx=0;exitDy=0;" parent="1" source="QNHk2WDSE1Qy1YumwTAw-93" target="QNHk2WDSE1Qy1YumwTAw-97" edge="1">
          <mxGeometry width="50" height="50" relative="1" as="geometry">
            <mxPoint x="859" y="-1400" as="sourcePoint" />
            <mxPoint x="909" y="-1450" as="targetPoint" />
          </mxGeometry>
        </mxCell>
        <mxCell id="4UUF0EVpMLg_NeCCig8T-1" value="Hospital" style="swimlane;horizontal=0;whiteSpace=wrap;html=1;" parent="1" vertex="1">
          <mxGeometry x="10" y="-2320" width="1110" height="360" as="geometry" />
        </mxCell>
        <mxCell id="QNHk2WDSE1Qy1YumwTAw-4" value="Radiology &#xa;department" style="swimlane;horizontal=0;startSize=27;" parent="4UUF0EVpMLg_NeCCig8T-1" vertex="1">
          <mxGeometry x="23" y="110" width="1087" height="140" as="geometry" />
        </mxCell>
        <mxCell id="QNHk2WDSE1Qy1YumwTAw-10" value="Review indication" style="rounded=1;whiteSpace=wrap;html=1;strokeWidth=1;fontSize=9;fillColor=none;" parent="QNHk2WDSE1Qy1YumwTAw-4" vertex="1">
          <mxGeometry x="124.13" y="35" width="83.75" height="40" as="geometry" />
        </mxCell>
        <mxCell id="QNHk2WDSE1Qy1YumwTAw-12" value="X" style="rhombus;whiteSpace=wrap;html=1;strokeWidth=1;fontSize=9;fillColor=none;" parent="QNHk2WDSE1Qy1YumwTAw-4" vertex="1">
          <mxGeometry x="240" y="45" width="20" height="20" as="geometry" />
        </mxCell>
        <mxCell id="QNHk2WDSE1Qy1YumwTAw-13" value="" style="endArrow=classic;html=1;rounded=0;fontSize=9;targetPerimeterSpacing=0;exitX=1;exitY=0.5;exitDx=0;exitDy=0;entryX=0;entryY=0.5;entryDx=0;entryDy=0;" parent="QNHk2WDSE1Qy1YumwTAw-4" source="QNHk2WDSE1Qy1YumwTAw-10" target="QNHk2WDSE1Qy1YumwTAw-12" edge="1">
          <mxGeometry width="50" height="50" relative="1" as="geometry">
            <mxPoint x="190" y="50" as="sourcePoint" />
            <mxPoint x="240" as="targetPoint" />
          </mxGeometry>
        </mxCell>
        <mxCell id="QNHk2WDSE1Qy1YumwTAw-14" value="Accepted?" style="text;html=1;align=center;verticalAlign=middle;resizable=0;points=[];autosize=1;strokeColor=none;fillColor=none;fontSize=9;" parent="QNHk2WDSE1Qy1YumwTAw-4" vertex="1">
          <mxGeometry x="215" y="25" width="70" height="20" as="geometry" />
        </mxCell>
        <mxCell id="QNHk2WDSE1Qy1YumwTAw-15" value="" style="ellipse;whiteSpace=wrap;html=1;aspect=fixed;strokeWidth=1;fillColor=none;" parent="QNHk2WDSE1Qy1YumwTAw-4" vertex="1">
          <mxGeometry x="238.75" y="90" width="22.5" height="22.5" as="geometry" />
        </mxCell>
        <mxCell id="QNHk2WDSE1Qy1YumwTAw-16" value="" style="endArrow=classic;html=1;rounded=0;fontSize=9;targetPerimeterSpacing=0;exitX=0.5;exitY=1;exitDx=0;exitDy=0;entryX=0.5;entryY=0;entryDx=0;entryDy=0;" parent="QNHk2WDSE1Qy1YumwTAw-4" source="QNHk2WDSE1Qy1YumwTAw-12" target="QNHk2WDSE1Qy1YumwTAw-15" edge="1">
          <mxGeometry width="50" height="50" relative="1" as="geometry">
            <mxPoint x="190" y="120" as="sourcePoint" />
            <mxPoint x="240" y="70" as="targetPoint" />
          </mxGeometry>
        </mxCell>
        <mxCell id="QNHk2WDSE1Qy1YumwTAw-17" value="no" style="text;html=1;align=center;verticalAlign=middle;resizable=0;points=[];autosize=1;strokeColor=none;fillColor=none;fontSize=9;" parent="QNHk2WDSE1Qy1YumwTAw-4" vertex="1">
          <mxGeometry x="244" y="65" width="30" height="20" as="geometry" />
        </mxCell>
        <mxCell id="QNHk2WDSE1Qy1YumwTAw-21" value="Schedule examination" style="rounded=1;whiteSpace=wrap;html=1;strokeWidth=1;fontSize=9;fillColor=none;" parent="QNHk2WDSE1Qy1YumwTAw-4" vertex="1">
          <mxGeometry x="290" y="35" width="83.75" height="40" as="geometry" />
        </mxCell>
        <mxCell id="QNHk2WDSE1Qy1YumwTAw-26" value="Examination conducted and documented" style="rounded=1;whiteSpace=wrap;html=1;strokeWidth=1;fontSize=9;fillColor=none;" parent="QNHk2WDSE1Qy1YumwTAw-4" vertex="1">
          <mxGeometry x="520" y="35" width="83.75" height="40" as="geometry" />
        </mxCell>
        <mxCell id="QNHk2WDSE1Qy1YumwTAw-27" value="X" style="rhombus;whiteSpace=wrap;html=1;strokeWidth=1;fontSize=9;fillColor=none;" parent="QNHk2WDSE1Qy1YumwTAw-4" vertex="1">
          <mxGeometry x="420" y="45" width="20" height="20" as="geometry" />
        </mxCell>
        <mxCell id="QNHk2WDSE1Qy1YumwTAw-28" value="Patient arrival before&lt;br&gt;&amp;nbsp;15 minutes?" style="text;html=1;align=center;verticalAlign=middle;resizable=0;points=[];autosize=1;strokeColor=none;fillColor=none;fontSize=9;" parent="QNHk2WDSE1Qy1YumwTAw-4" vertex="1">
          <mxGeometry x="420" y="15" width="110" height="40" as="geometry" />
        </mxCell>
        <mxCell id="QNHk2WDSE1Qy1YumwTAw-29" value="" style="endArrow=classic;html=1;rounded=0;fontSize=9;targetPerimeterSpacing=0;exitX=1;exitY=0.5;exitDx=0;exitDy=0;entryX=0;entryY=0.5;entryDx=0;entryDy=0;" parent="QNHk2WDSE1Qy1YumwTAw-4" source="QNHk2WDSE1Qy1YumwTAw-27" target="QNHk2WDSE1Qy1YumwTAw-26" edge="1">
          <mxGeometry width="50" height="50" relative="1" as="geometry">
            <mxPoint x="420" y="70" as="sourcePoint" />
            <mxPoint x="470" y="20" as="targetPoint" />
          </mxGeometry>
        </mxCell>
        <mxCell id="QNHk2WDSE1Qy1YumwTAw-30" value="" style="ellipse;whiteSpace=wrap;html=1;aspect=fixed;strokeWidth=1;fillColor=none;" parent="QNHk2WDSE1Qy1YumwTAw-4" vertex="1">
          <mxGeometry x="418.75" y="90" width="22.5" height="22.5" as="geometry" />
        </mxCell>
        <mxCell id="QNHk2WDSE1Qy1YumwTAw-31" value="" style="endArrow=classic;html=1;rounded=0;fontSize=9;targetPerimeterSpacing=0;exitX=0.15;exitY=-0.051;exitDx=0;exitDy=0;entryX=0.5;entryY=0;entryDx=0;entryDy=0;exitPerimeter=0;" parent="QNHk2WDSE1Qy1YumwTAw-4" source="QNHk2WDSE1Qy1YumwTAw-32" target="QNHk2WDSE1Qy1YumwTAw-30" edge="1">
          <mxGeometry width="50" height="50" relative="1" as="geometry">
            <mxPoint x="431.24999999999994" y="65" as="sourcePoint" />
            <mxPoint x="401.25" y="1520" as="targetPoint" />
          </mxGeometry>
        </mxCell>
        <mxCell id="QNHk2WDSE1Qy1YumwTAw-32" value="no" style="text;html=1;align=center;verticalAlign=middle;resizable=0;points=[];autosize=1;strokeColor=none;fillColor=none;fontSize=9;" parent="QNHk2WDSE1Qy1YumwTAw-4" vertex="1">
          <mxGeometry x="425.25" y="65" width="30" height="20" as="geometry" />
        </mxCell>
        <mxCell id="QNHk2WDSE1Qy1YumwTAw-33" value="yes" style="text;html=1;align=center;verticalAlign=middle;resizable=0;points=[];autosize=1;strokeColor=none;fillColor=none;fontSize=9;" parent="QNHk2WDSE1Qy1YumwTAw-4" vertex="1">
          <mxGeometry x="455" y="55" width="40" height="20" as="geometry" />
        </mxCell>
        <mxCell id="QNHk2WDSE1Qy1YumwTAw-38" value="Record report" style="rounded=1;whiteSpace=wrap;html=1;strokeWidth=1;fontSize=9;fillColor=none;" parent="QNHk2WDSE1Qy1YumwTAw-4" vertex="1">
          <mxGeometry x="650" y="35" width="83.75" height="40" as="geometry" />
        </mxCell>
        <mxCell id="QNHk2WDSE1Qy1YumwTAw-39" value="" style="endArrow=classic;html=1;rounded=0;fontSize=9;targetPerimeterSpacing=0;exitX=1;exitY=0.5;exitDx=0;exitDy=0;entryX=0;entryY=0.5;entryDx=0;entryDy=0;" parent="QNHk2WDSE1Qy1YumwTAw-4" source="QNHk2WDSE1Qy1YumwTAw-26" target="QNHk2WDSE1Qy1YumwTAw-38" edge="1">
          <mxGeometry width="50" height="50" relative="1" as="geometry">
            <mxPoint x="610" y="100" as="sourcePoint" />
            <mxPoint x="660" y="50" as="targetPoint" />
          </mxGeometry>
        </mxCell>
        <mxCell id="QNHk2WDSE1Qy1YumwTAw-41" value="Cancel order" style="text;html=1;align=center;verticalAlign=middle;resizable=0;points=[];autosize=1;strokeColor=none;fillColor=none;fontSize=9;" parent="QNHk2WDSE1Qy1YumwTAw-4" vertex="1">
          <mxGeometry x="210" y="112.5" width="80" height="20" as="geometry" />
        </mxCell>
        <mxCell id="QNHk2WDSE1Qy1YumwTAw-42" value="Cancel examination" style="text;html=1;align=center;verticalAlign=middle;resizable=0;points=[];autosize=1;strokeColor=none;fillColor=none;fontSize=9;" parent="QNHk2WDSE1Qy1YumwTAw-4" vertex="1">
          <mxGeometry x="380" y="112.5" width="100" height="20" as="geometry" />
        </mxCell>
        <mxCell id="QNHk2WDSE1Qy1YumwTAw-45" value="Confirm and sign text" style="rounded=1;whiteSpace=wrap;html=1;strokeWidth=1;fontSize=9;fillColor=none;" parent="QNHk2WDSE1Qy1YumwTAw-4" vertex="1">
          <mxGeometry x="777" y="35" width="83.75" height="40" as="geometry" />
        </mxCell>
        <mxCell id="vk6SjFvmAoGc1jPSLUOf-1" value="yes" style="text;html=1;align=center;verticalAlign=middle;resizable=0;points=[];autosize=1;strokeColor=none;fillColor=none;fontSize=9;" parent="QNHk2WDSE1Qy1YumwTAw-4" vertex="1">
          <mxGeometry x="250" y="35" width="40" height="20" as="geometry" />
        </mxCell>
        <mxCell id="vk6SjFvmAoGc1jPSLUOf-2" value="" style="endArrow=none;html=1;rounded=0;fontSize=9;exitX=1;exitY=0.5;exitDx=0;exitDy=0;" parent="QNHk2WDSE1Qy1YumwTAw-4" source="QNHk2WDSE1Qy1YumwTAw-12" target="vk6SjFvmAoGc1jPSLUOf-1" edge="1">
          <mxGeometry width="50" height="50" relative="1" as="geometry">
            <mxPoint x="260" y="55" as="sourcePoint" />
            <mxPoint x="290" y="55" as="targetPoint" />
          </mxGeometry>
        </mxCell>
        <mxCell id="vk6SjFvmAoGc1jPSLUOf-3" value="" style="endArrow=classic;html=1;rounded=0;fontSize=9;targetPerimeterSpacing=0;entryX=0;entryY=0.5;entryDx=0;entryDy=0;" parent="QNHk2WDSE1Qy1YumwTAw-4" source="QNHk2WDSE1Qy1YumwTAw-12" target="QNHk2WDSE1Qy1YumwTAw-21" edge="1">
          <mxGeometry width="50" height="50" relative="1" as="geometry">
            <mxPoint x="300" y="90" as="sourcePoint" />
            <mxPoint x="350" y="40" as="targetPoint" />
          </mxGeometry>
        </mxCell>
        <mxCell id="dXp_FnK3E7WxubOuzzvO-1" value="" style="sketch=0;outlineConnect=0;fontColor=#232F3E;gradientColor=none;fillColor=#232F3D;strokeColor=none;dashed=0;verticalLabelPosition=bottom;verticalAlign=top;align=center;html=1;fontSize=12;fontStyle=0;aspect=fixed;pointerEvents=1;shape=mxgraph.aws4.user;" vertex="1" parent="QNHk2WDSE1Qy1YumwTAw-4">
          <mxGeometry x="128" y="38" width="7" height="7" as="geometry" />
        </mxCell>
        <mxCell id="dXp_FnK3E7WxubOuzzvO-2" value="" style="sketch=0;outlineConnect=0;fontColor=#232F3E;gradientColor=none;fillColor=#232F3D;strokeColor=none;dashed=0;verticalLabelPosition=bottom;verticalAlign=top;align=center;html=1;fontSize=12;fontStyle=0;aspect=fixed;pointerEvents=1;shape=mxgraph.aws4.user;" vertex="1" parent="QNHk2WDSE1Qy1YumwTAw-4">
          <mxGeometry x="295" y="38" width="7" height="7" as="geometry" />
        </mxCell>
        <mxCell id="dXp_FnK3E7WxubOuzzvO-4" value="" style="sketch=0;outlineConnect=0;fontColor=#232F3E;gradientColor=none;fillColor=#232F3D;strokeColor=none;dashed=0;verticalLabelPosition=bottom;verticalAlign=top;align=center;html=1;fontSize=12;fontStyle=0;aspect=fixed;pointerEvents=1;shape=mxgraph.aws4.user;" vertex="1" parent="QNHk2WDSE1Qy1YumwTAw-4">
          <mxGeometry x="523" y="38" width="7" height="7" as="geometry" />
        </mxCell>
        <mxCell id="dXp_FnK3E7WxubOuzzvO-5" value="" style="sketch=0;outlineConnect=0;fontColor=#232F3E;gradientColor=none;fillColor=#232F3D;strokeColor=none;dashed=0;verticalLabelPosition=bottom;verticalAlign=top;align=center;html=1;fontSize=12;fontStyle=0;aspect=fixed;pointerEvents=1;shape=mxgraph.aws4.user;" vertex="1" parent="QNHk2WDSE1Qy1YumwTAw-4">
          <mxGeometry x="654" y="38" width="7" height="7" as="geometry" />
        </mxCell>
        <mxCell id="dXp_FnK3E7WxubOuzzvO-7" value="" style="sketch=0;outlineConnect=0;fontColor=#232F3E;gradientColor=none;fillColor=#232F3D;strokeColor=none;dashed=0;verticalLabelPosition=bottom;verticalAlign=top;align=center;html=1;fontSize=12;fontStyle=0;aspect=fixed;pointerEvents=1;shape=mxgraph.aws4.user;" vertex="1" parent="QNHk2WDSE1Qy1YumwTAw-4">
          <mxGeometry x="781" y="38" width="7" height="7" as="geometry" />
        </mxCell>
        <mxCell id="QNHk2WDSE1Qy1YumwTAw-2" value="Secretary" style="swimlane;horizontal=0;startSize=27;" parent="4UUF0EVpMLg_NeCCig8T-1" vertex="1">
          <mxGeometry x="23" y="250" width="1087" height="110" as="geometry" />
        </mxCell>
        <mxCell id="QNHk2WDSE1Qy1YumwTAw-43" value="Transcribe report" style="rounded=1;whiteSpace=wrap;html=1;strokeWidth=1;fontSize=9;fillColor=none;" parent="QNHk2WDSE1Qy1YumwTAw-2" vertex="1">
          <mxGeometry x="649" y="30" width="83.75" height="40" as="geometry" />
        </mxCell>
        <mxCell id="dXp_FnK3E7WxubOuzzvO-6" value="" style="sketch=0;outlineConnect=0;fontColor=#232F3E;gradientColor=none;fillColor=#232F3D;strokeColor=none;dashed=0;verticalLabelPosition=bottom;verticalAlign=top;align=center;html=1;fontSize=12;fontStyle=0;aspect=fixed;pointerEvents=1;shape=mxgraph.aws4.user;" vertex="1" parent="QNHk2WDSE1Qy1YumwTAw-2">
          <mxGeometry x="652.75" y="33" width="7" height="7" as="geometry" />
        </mxCell>
        <mxCell id="QNHk2WDSE1Qy1YumwTAw-44" value="" style="endArrow=classic;html=1;rounded=0;fontSize=9;targetPerimeterSpacing=0;exitX=0.5;exitY=1;exitDx=0;exitDy=0;entryX=0.5;entryY=0;entryDx=0;entryDy=0;" parent="4UUF0EVpMLg_NeCCig8T-1" source="QNHk2WDSE1Qy1YumwTAw-38" target="QNHk2WDSE1Qy1YumwTAw-43" edge="1">
          <mxGeometry width="50" height="50" relative="1" as="geometry">
            <mxPoint x="640" y="360" as="sourcePoint" />
            <mxPoint x="690" y="310" as="targetPoint" />
          </mxGeometry>
        </mxCell>
        <mxCell id="QNHk2WDSE1Qy1YumwTAw-53" value="" style="endArrow=classic;html=1;rounded=0;fontSize=9;targetPerimeterSpacing=0;exitX=1;exitY=0.5;exitDx=0;exitDy=0;entryX=0.5;entryY=1;entryDx=0;entryDy=0;" parent="4UUF0EVpMLg_NeCCig8T-1" source="QNHk2WDSE1Qy1YumwTAw-43" target="QNHk2WDSE1Qy1YumwTAw-45" edge="1">
          <mxGeometry width="50" height="50" relative="1" as="geometry">
            <mxPoint x="860" y="180" as="sourcePoint" />
            <mxPoint x="910" y="130" as="targetPoint" />
            <Array as="points">
              <mxPoint x="842" y="300" />
            </Array>
          </mxGeometry>
        </mxCell>
        <mxCell id="QNHk2WDSE1Qy1YumwTAw-3" value="Physician" style="swimlane;horizontal=0;strokeWidth=1;startSize=27;" parent="4UUF0EVpMLg_NeCCig8T-1" vertex="1">
          <mxGeometry x="23" width="1087" height="110" as="geometry" />
        </mxCell>
        <mxCell id="QNHk2WDSE1Qy1YumwTAw-5" value="Complete digital order&lt;br&gt;+" style="rounded=1;whiteSpace=wrap;html=1;" parent="QNHk2WDSE1Qy1YumwTAw-3" vertex="1">
          <mxGeometry x="120" y="25" width="90" height="45" as="geometry" />
        </mxCell>
        <mxCell id="QNHk2WDSE1Qy1YumwTAw-6" value="" style="whiteSpace=wrap;html=1;aspect=fixed;fillColor=none;strokeWidth=1;" parent="QNHk2WDSE1Qy1YumwTAw-3" vertex="1">
          <mxGeometry x="158" y="56" width="14" height="14" as="geometry" />
        </mxCell>
        <mxCell id="QNHk2WDSE1Qy1YumwTAw-7" value="" style="ellipse;whiteSpace=wrap;html=1;aspect=fixed;strokeWidth=1;fillColor=none;" parent="QNHk2WDSE1Qy1YumwTAw-3" vertex="1">
          <mxGeometry x="60" y="36.25" width="22.5" height="22.5" as="geometry" />
        </mxCell>
        <mxCell id="QNHk2WDSE1Qy1YumwTAw-8" value="" style="endArrow=classic;html=1;rounded=0;exitX=1;exitY=0.5;exitDx=0;exitDy=0;entryX=0;entryY=0.5;entryDx=0;entryDy=0;targetPerimeterSpacing=0;" parent="QNHk2WDSE1Qy1YumwTAw-3" source="QNHk2WDSE1Qy1YumwTAw-7" target="QNHk2WDSE1Qy1YumwTAw-5" edge="1">
          <mxGeometry width="50" height="50" relative="1" as="geometry">
            <mxPoint x="160" y="120" as="sourcePoint" />
            <mxPoint x="210" y="70" as="targetPoint" />
          </mxGeometry>
        </mxCell>
        <mxCell id="QNHk2WDSE1Qy1YumwTAw-9" value="Start procedure" style="text;html=1;align=center;verticalAlign=middle;resizable=0;points=[];autosize=1;strokeColor=none;fillColor=none;fontSize=9;" parent="QNHk2WDSE1Qy1YumwTAw-3" vertex="1">
          <mxGeometry x="26.25" y="16.25" width="90" height="20" as="geometry" />
        </mxCell>
        <mxCell id="QNHk2WDSE1Qy1YumwTAw-23" value="Receive date and time" style="rounded=1;whiteSpace=wrap;html=1;strokeWidth=1;fontSize=9;fillColor=none;" parent="QNHk2WDSE1Qy1YumwTAw-3" vertex="1">
          <mxGeometry x="290" y="30" width="83.75" height="40" as="geometry" />
        </mxCell>
        <mxCell id="QNHk2WDSE1Qy1YumwTAw-48" value="Receive report" style="rounded=1;whiteSpace=wrap;html=1;strokeWidth=1;fontSize=9;fillColor=none;" parent="QNHk2WDSE1Qy1YumwTAw-3" vertex="1">
          <mxGeometry x="897" y="30" width="83.75" height="40" as="geometry" />
        </mxCell>
        <mxCell id="QNHk2WDSE1Qy1YumwTAw-50" value="" style="ellipse;whiteSpace=wrap;html=1;aspect=fixed;strokeWidth=1;fillColor=none;" parent="QNHk2WDSE1Qy1YumwTAw-3" vertex="1">
          <mxGeometry x="1029" y="38.75" width="22.5" height="22.5" as="geometry" />
        </mxCell>
        <mxCell id="QNHk2WDSE1Qy1YumwTAw-51" value="" style="endArrow=classic;html=1;rounded=0;fontSize=9;targetPerimeterSpacing=0;exitX=1;exitY=0.5;exitDx=0;exitDy=0;entryX=0;entryY=0.5;entryDx=0;entryDy=0;" parent="QNHk2WDSE1Qy1YumwTAw-3" source="QNHk2WDSE1Qy1YumwTAw-48" target="QNHk2WDSE1Qy1YumwTAw-50" edge="1">
          <mxGeometry width="50" height="50" relative="1" as="geometry">
            <mxPoint x="999" y="106" as="sourcePoint" />
            <mxPoint x="1049" y="56" as="targetPoint" />
          </mxGeometry>
        </mxCell>
        <mxCell id="QNHk2WDSE1Qy1YumwTAw-52" value="End procedure" style="text;html=1;align=center;verticalAlign=middle;resizable=0;points=[];autosize=1;strokeColor=none;fillColor=none;fontSize=9;" parent="QNHk2WDSE1Qy1YumwTAw-3" vertex="1">
          <mxGeometry x="1000.25" y="16.25" width="80" height="20" as="geometry" />
        </mxCell>
        <mxCell id="QNHk2WDSE1Qy1YumwTAw-49" value="" style="endArrow=classic;html=1;rounded=0;fontSize=9;targetPerimeterSpacing=0;exitX=1;exitY=0.5;exitDx=0;exitDy=0;entryX=0.5;entryY=1;entryDx=0;entryDy=0;" parent="QNHk2WDSE1Qy1YumwTAw-3" source="QNHk2WDSE1Qy1YumwTAw-45" target="QNHk2WDSE1Qy1YumwTAw-48" edge="1">
          <mxGeometry width="50" height="50" relative="1" as="geometry">
            <mxPoint x="877" y="185" as="sourcePoint" />
            <mxPoint x="927" y="135" as="targetPoint" />
            <Array as="points">
              <mxPoint x="939" y="165" />
            </Array>
          </mxGeometry>
        </mxCell>
        <mxCell id="dXp_FnK3E7WxubOuzzvO-3" value="" style="sketch=0;outlineConnect=0;fontColor=#232F3E;gradientColor=none;fillColor=#232F3D;strokeColor=none;dashed=0;verticalLabelPosition=bottom;verticalAlign=top;align=center;html=1;fontSize=12;fontStyle=0;aspect=fixed;pointerEvents=1;shape=mxgraph.aws4.user;" vertex="1" parent="QNHk2WDSE1Qy1YumwTAw-3">
          <mxGeometry x="293" y="32" width="7" height="7" as="geometry" />
        </mxCell>
        <mxCell id="dXp_FnK3E7WxubOuzzvO-8" value="" style="sketch=0;outlineConnect=0;fontColor=#232F3E;gradientColor=none;fillColor=#232F3D;strokeColor=none;dashed=0;verticalLabelPosition=bottom;verticalAlign=top;align=center;html=1;fontSize=12;fontStyle=0;aspect=fixed;pointerEvents=1;shape=mxgraph.aws4.user;" vertex="1" parent="QNHk2WDSE1Qy1YumwTAw-3">
          <mxGeometry x="901" y="32" width="7" height="7" as="geometry" />
        </mxCell>
        <mxCell id="QNHk2WDSE1Qy1YumwTAw-11" value="" style="endArrow=classic;html=1;rounded=0;fontSize=9;targetPerimeterSpacing=0;exitX=0.5;exitY=1;exitDx=0;exitDy=0;entryX=0.5;entryY=0;entryDx=0;entryDy=0;" parent="4UUF0EVpMLg_NeCCig8T-1" source="QNHk2WDSE1Qy1YumwTAw-6" target="QNHk2WDSE1Qy1YumwTAw-10" edge="1">
          <mxGeometry width="50" height="50" relative="1" as="geometry">
            <mxPoint x="210" y="170" as="sourcePoint" />
            <mxPoint x="260" y="120" as="targetPoint" />
          </mxGeometry>
        </mxCell>
        <mxCell id="QNHk2WDSE1Qy1YumwTAw-22" value="" style="endArrow=classic;html=1;rounded=0;fontSize=9;targetPerimeterSpacing=0;exitX=0.5;exitY=0;exitDx=0;exitDy=0;entryX=0.5;entryY=1;entryDx=0;entryDy=0;" parent="4UUF0EVpMLg_NeCCig8T-1" source="QNHk2WDSE1Qy1YumwTAw-21" target="QNHk2WDSE1Qy1YumwTAw-23" edge="1">
          <mxGeometry width="50" height="50" relative="1" as="geometry">
            <mxPoint x="320" y="130" as="sourcePoint" />
            <mxPoint x="352" y="80" as="targetPoint" />
          </mxGeometry>
        </mxCell>
        <mxCell id="QNHk2WDSE1Qy1YumwTAw-24" value="" style="endArrow=classic;html=1;rounded=0;fontSize=9;targetPerimeterSpacing=0;entryX=0.5;entryY=0;entryDx=0;entryDy=0;exitX=1;exitY=0.5;exitDx=0;exitDy=0;" parent="4UUF0EVpMLg_NeCCig8T-1" source="QNHk2WDSE1Qy1YumwTAw-23" target="QNHk2WDSE1Qy1YumwTAw-27" edge="1">
          <mxGeometry width="50" height="50" relative="1" as="geometry">
            <mxPoint x="450" y="50" as="sourcePoint" />
            <mxPoint x="450" y="160" as="targetPoint" />
            <Array as="points">
              <mxPoint x="453" y="50" />
            </Array>
          </mxGeometry>
        </mxCell>
        <mxCell id="Mmiz1_5tR6Hu_ofaWx2c-1" value="" style="sketch=0;outlineConnect=0;fontColor=#232F3E;gradientColor=none;fillColor=#232F3D;strokeColor=none;dashed=0;verticalLabelPosition=bottom;verticalAlign=top;align=center;html=1;fontSize=12;fontStyle=0;aspect=fixed;pointerEvents=1;shape=mxgraph.aws4.user;" vertex="1" parent="1">
          <mxGeometry x="176" y="-1447" width="7" height="7" as="geometry" />
        </mxCell>
        <mxCell id="Mmiz1_5tR6Hu_ofaWx2c-2" value="" style="sketch=0;outlineConnect=0;fontColor=#232F3E;gradientColor=none;fillColor=#232F3D;strokeColor=none;dashed=0;verticalLabelPosition=bottom;verticalAlign=top;align=center;html=1;fontSize=12;fontStyle=0;aspect=fixed;pointerEvents=1;shape=mxgraph.aws4.user;" vertex="1" parent="1">
          <mxGeometry x="310" y="-1447" width="7" height="7" as="geometry" />
        </mxCell>
        <mxCell id="Mmiz1_5tR6Hu_ofaWx2c-3" value="" style="sketch=0;outlineConnect=0;fontColor=#232F3E;gradientColor=none;fillColor=#232F3D;strokeColor=none;dashed=0;verticalLabelPosition=bottom;verticalAlign=top;align=center;html=1;fontSize=12;fontStyle=0;aspect=fixed;pointerEvents=1;shape=mxgraph.aws4.user;" vertex="1" parent="1">
          <mxGeometry x="480" y="-1447" width="7" height="7" as="geometry" />
        </mxCell>
        <mxCell id="Mmiz1_5tR6Hu_ofaWx2c-4" value="" style="sketch=0;outlineConnect=0;fontColor=#232F3E;gradientColor=none;fillColor=#232F3D;strokeColor=none;dashed=0;verticalLabelPosition=bottom;verticalAlign=top;align=center;html=1;fontSize=12;fontStyle=0;aspect=fixed;pointerEvents=1;shape=mxgraph.aws4.user;" vertex="1" parent="1">
          <mxGeometry x="614" y="-1447" width="7" height="7" as="geometry" />
        </mxCell>
        <mxCell id="Mmiz1_5tR6Hu_ofaWx2c-5" value="" style="sketch=0;outlineConnect=0;fontColor=#232F3E;gradientColor=none;fillColor=#232F3D;strokeColor=none;dashed=0;verticalLabelPosition=bottom;verticalAlign=top;align=center;html=1;fontSize=12;fontStyle=0;aspect=fixed;pointerEvents=1;shape=mxgraph.aws4.user;" vertex="1" parent="1">
          <mxGeometry x="793" y="-1448.25" width="7" height="7" as="geometry" />
        </mxCell>
        <mxCell id="Mmiz1_5tR6Hu_ofaWx2c-6" value="" style="sketch=0;outlineConnect=0;fontColor=#232F3E;gradientColor=none;fillColor=#232F3D;strokeColor=none;dashed=0;verticalLabelPosition=bottom;verticalAlign=top;align=center;html=1;fontSize=12;fontStyle=0;aspect=fixed;pointerEvents=1;shape=mxgraph.aws4.user;" vertex="1" parent="1">
          <mxGeometry x="923" y="-1447" width="7" height="7" as="geometry" />
        </mxCell>
      </root>
    </mxGraphModel>
  </diagram>
  <diagram id="84MF8u4VIZMF9Ld5FCGy" name="PÃ¡gina-2">
    <mxGraphModel dx="420" dy="3732" grid="1" gridSize="10" guides="1" tooltips="1" connect="1" arrows="1" fold="1" page="1" pageScale="1" pageWidth="1654" pageHeight="1169" math="0" shadow="0">
      <root>
        <mxCell id="0" />
        <mxCell id="1" parent="0" />
        <mxCell id="htn3oL57G23V9cVcqPmQ-1" value="Client" style="swimlane;horizontal=0;" parent="1" vertex="1">
          <mxGeometry y="-3500" width="1629" height="70" as="geometry" />
        </mxCell>
        <mxCell id="htn3oL57G23V9cVcqPmQ-4" value="Broker" style="swimlane;horizontal=0;strokeWidth=1;" parent="1" vertex="1">
          <mxGeometry x="0.5" y="-3360" width="1629" height="140" as="geometry" />
        </mxCell>
        <mxCell id="htn3oL57G23V9cVcqPmQ-8" value="" style="endArrow=classic;html=1;rounded=0;exitX=1;exitY=0.5;exitDx=0;exitDy=0;entryX=0;entryY=0.5;entryDx=0;entryDy=0;targetPerimeterSpacing=0;" parent="htn3oL57G23V9cVcqPmQ-4" edge="1">
          <mxGeometry width="50" height="50" relative="1" as="geometry">
            <mxPoint x="83.75000000000216" y="48.125" as="sourcePoint" />
            <mxPoint x="120" y="47.5" as="targetPoint" />
          </mxGeometry>
        </mxCell>
        <mxCell id="htn3oL57G23V9cVcqPmQ-9" value="Start procedure" style="text;html=1;align=center;verticalAlign=middle;resizable=0;points=[];autosize=1;strokeColor=none;fillColor=none;fontSize=9;" parent="htn3oL57G23V9cVcqPmQ-4" vertex="1">
          <mxGeometry x="26.25" y="60" width="90" height="20" as="geometry" />
        </mxCell>
        <mxCell id="-DVn-FwIMz4xGNtjaVsw-1" value="Preliminary elegibility check" style="rounded=1;whiteSpace=wrap;html=1;strokeWidth=1;fontSize=9;fillColor=none;" parent="htn3oL57G23V9cVcqPmQ-4" vertex="1">
          <mxGeometry x="119" y="27.5" width="83.75" height="40" as="geometry" />
        </mxCell>
        <mxCell id="-DVn-FwIMz4xGNtjaVsw-2" value="X" style="rhombus;whiteSpace=wrap;html=1;strokeWidth=1;fontSize=9;fillColor=none;" parent="htn3oL57G23V9cVcqPmQ-4" vertex="1">
          <mxGeometry x="234.87" y="36.25" width="20" height="20" as="geometry" />
        </mxCell>
        <mxCell id="-DVn-FwIMz4xGNtjaVsw-3" value="" style="endArrow=classic;html=1;rounded=0;fontSize=9;targetPerimeterSpacing=0;exitX=1;exitY=0.5;exitDx=0;exitDy=0;entryX=0;entryY=0.5;entryDx=0;entryDy=0;" parent="htn3oL57G23V9cVcqPmQ-4" target="-DVn-FwIMz4xGNtjaVsw-2" edge="1">
          <mxGeometry width="50" height="50" relative="1" as="geometry">
            <mxPoint x="202.75" y="46.25" as="sourcePoint" />
            <mxPoint x="204.87" y="2191.25" as="targetPoint" />
          </mxGeometry>
        </mxCell>
        <mxCell id="-DVn-FwIMz4xGNtjaVsw-4" value="Broker can respond&lt;br&gt;within 1 week?" style="text;html=1;align=center;verticalAlign=middle;resizable=0;points=[];autosize=1;strokeColor=none;fillColor=none;fontSize=9;" parent="htn3oL57G23V9cVcqPmQ-4" vertex="1">
          <mxGeometry x="194.87" width="100" height="40" as="geometry" />
        </mxCell>
        <mxCell id="-DVn-FwIMz4xGNtjaVsw-6" value="no" style="text;html=1;align=center;verticalAlign=middle;resizable=0;points=[];autosize=1;strokeColor=none;fillColor=none;fontSize=9;" parent="htn3oL57G23V9cVcqPmQ-4" vertex="1">
          <mxGeometry x="238.87" y="56.25" width="30" height="20" as="geometry" />
        </mxCell>
        <mxCell id="-DVn-FwIMz4xGNtjaVsw-7" value="" style="endArrow=classic;html=1;rounded=0;fontSize=9;targetPerimeterSpacing=0;exitX=1;exitY=0.5;exitDx=0;exitDy=0;entryX=0;entryY=0.5;entryDx=0;entryDy=0;" parent="htn3oL57G23V9cVcqPmQ-4" source="-DVn-FwIMz4xGNtjaVsw-2" target="-DVn-FwIMz4xGNtjaVsw-11" edge="1">
          <mxGeometry width="50" height="50" relative="1" as="geometry">
            <mxPoint x="254.87" y="51.25" as="sourcePoint" />
            <mxPoint x="299" y="46" as="targetPoint" />
          </mxGeometry>
        </mxCell>
        <mxCell id="-DVn-FwIMz4xGNtjaVsw-8" value="yes" style="text;html=1;align=center;verticalAlign=middle;resizable=0;points=[];autosize=1;strokeColor=none;fillColor=none;fontSize=9;" parent="htn3oL57G23V9cVcqPmQ-4" vertex="1">
          <mxGeometry x="243.87" y="27.5" width="40" height="20" as="geometry" />
        </mxCell>
        <mxCell id="-DVn-FwIMz4xGNtjaVsw-10" value="Process application" style="rounded=1;whiteSpace=wrap;html=1;strokeWidth=1;fontSize=9;fillColor=none;" parent="htn3oL57G23V9cVcqPmQ-4" vertex="1">
          <mxGeometry x="409" y="26.25" width="83.75" height="40" as="geometry" />
        </mxCell>
        <mxCell id="-DVn-FwIMz4xGNtjaVsw-11" value="X" style="rhombus;whiteSpace=wrap;html=1;strokeWidth=1;fontSize=9;fillColor=none;" parent="htn3oL57G23V9cVcqPmQ-4" vertex="1">
          <mxGeometry x="323.87" y="36.25" width="20" height="20" as="geometry" />
        </mxCell>
        <mxCell id="-DVn-FwIMz4xGNtjaVsw-14" value="Amount &amp;lt; broker&#39;s&lt;br&gt;authority?" style="text;html=1;align=center;verticalAlign=middle;resizable=0;points=[];autosize=1;strokeColor=none;fillColor=none;fontSize=9;" parent="htn3oL57G23V9cVcqPmQ-4" vertex="1">
          <mxGeometry x="283.87" width="100" height="40" as="geometry" />
        </mxCell>
        <mxCell id="-DVn-FwIMz4xGNtjaVsw-15" value="" style="endArrow=classic;html=1;rounded=0;fontSize=9;targetPerimeterSpacing=0;exitX=1;exitY=0.5;exitDx=0;exitDy=0;entryX=0;entryY=0.5;entryDx=0;entryDy=0;" parent="htn3oL57G23V9cVcqPmQ-4" source="-DVn-FwIMz4xGNtjaVsw-11" target="-DVn-FwIMz4xGNtjaVsw-10" edge="1">
          <mxGeometry width="50" height="50" relative="1" as="geometry">
            <mxPoint x="309" y="70" as="sourcePoint" />
            <mxPoint x="359" y="20" as="targetPoint" />
          </mxGeometry>
        </mxCell>
        <mxCell id="-DVn-FwIMz4xGNtjaVsw-16" value="yes" style="text;html=1;align=center;verticalAlign=middle;resizable=0;points=[];autosize=1;strokeColor=none;fillColor=none;fontSize=9;" parent="htn3oL57G23V9cVcqPmQ-4" vertex="1">
          <mxGeometry x="329" y="27.5" width="40" height="20" as="geometry" />
        </mxCell>
        <mxCell id="-DVn-FwIMz4xGNtjaVsw-18" value="Forward application" style="rounded=1;whiteSpace=wrap;html=1;strokeWidth=1;fontSize=9;fillColor=none;" parent="htn3oL57G23V9cVcqPmQ-4" vertex="1">
          <mxGeometry x="292" y="90" width="83.75" height="40" as="geometry" />
        </mxCell>
        <mxCell id="-DVn-FwIMz4xGNtjaVsw-19" value="" style="endArrow=classic;html=1;rounded=0;fontSize=9;targetPerimeterSpacing=0;exitX=0.5;exitY=1;exitDx=0;exitDy=0;entryX=0.5;entryY=0;entryDx=0;entryDy=0;" parent="htn3oL57G23V9cVcqPmQ-4" source="-DVn-FwIMz4xGNtjaVsw-11" target="-DVn-FwIMz4xGNtjaVsw-18" edge="1">
          <mxGeometry width="50" height="50" relative="1" as="geometry">
            <mxPoint x="299" y="160" as="sourcePoint" />
            <mxPoint x="349" y="110" as="targetPoint" />
          </mxGeometry>
        </mxCell>
        <mxCell id="-DVn-FwIMz4xGNtjaVsw-48" value="Send approval or&lt;br&gt;rejection letter" style="rounded=1;whiteSpace=wrap;html=1;strokeWidth=1;fontSize=9;fillColor=none;" parent="htn3oL57G23V9cVcqPmQ-4" vertex="1">
          <mxGeometry x="586.01" y="27.5" width="83.75" height="40" as="geometry" />
        </mxCell>
        <mxCell id="oFlLQU60bPr8UDns7WKE-1" value="" style="endArrow=classic;html=1;rounded=0;exitX=1;exitY=0.5;exitDx=0;exitDy=0;entryX=0;entryY=0.5;entryDx=0;entryDy=0;" parent="htn3oL57G23V9cVcqPmQ-4" source="-DVn-FwIMz4xGNtjaVsw-10" target="-DVn-FwIMz4xGNtjaVsw-48" edge="1">
          <mxGeometry width="50" height="50" relative="1" as="geometry">
            <mxPoint x="429" y="160" as="sourcePoint" />
            <mxPoint x="479" y="110" as="targetPoint" />
          </mxGeometry>
        </mxCell>
        <mxCell id="oFlLQU60bPr8UDns7WKE-6" value="no" style="text;html=1;align=center;verticalAlign=middle;resizable=0;points=[];autosize=1;strokeColor=none;fillColor=none;fontSize=9;" parent="htn3oL57G23V9cVcqPmQ-4" vertex="1">
          <mxGeometry x="334" y="56.25" width="30" height="20" as="geometry" />
        </mxCell>
        <mxCell id="w2w5SfIMontvGgBVjQMu-1" value="Request&lt;div&gt;direct contact&lt;/div&gt;" style="rounded=1;whiteSpace=wrap;html=1;strokeWidth=1;fontSize=9;fillColor=none;" vertex="1" parent="htn3oL57G23V9cVcqPmQ-4">
          <mxGeometry x="203" y="90" width="83.75" height="40" as="geometry" />
        </mxCell>
        <mxCell id="-DVn-FwIMz4xGNtjaVsw-5" value="" style="endArrow=classic;html=1;rounded=0;fontSize=9;targetPerimeterSpacing=0;exitX=0.5;exitY=1;exitDx=0;exitDy=0;entryX=0.5;entryY=0;entryDx=0;entryDy=0;" parent="htn3oL57G23V9cVcqPmQ-4" source="-DVn-FwIMz4xGNtjaVsw-2" target="w2w5SfIMontvGgBVjQMu-1" edge="1">
          <mxGeometry width="50" height="50" relative="1" as="geometry">
            <mxPoint x="165.37" y="2311.25" as="sourcePoint" />
            <mxPoint x="244.5" y="90" as="targetPoint" />
          </mxGeometry>
        </mxCell>
        <mxCell id="w2w5SfIMontvGgBVjQMu-5" value="letter" style="text;html=1;align=center;verticalAlign=middle;resizable=0;points=[];autosize=1;strokeColor=none;fillColor=none;fontSize=9;" vertex="1" parent="htn3oL57G23V9cVcqPmQ-4">
          <mxGeometry x="586.01" y="80" width="40" height="20" as="geometry" />
        </mxCell>
        <mxCell id="w2w5SfIMontvGgBVjQMu-9" value="letter" style="text;html=1;align=center;verticalAlign=middle;resizable=0;points=[];autosize=1;strokeColor=none;fillColor=none;fontSize=9;" vertex="1" parent="htn3oL57G23V9cVcqPmQ-4">
          <mxGeometry x="669.76" y="6.25" width="40" height="20" as="geometry" />
        </mxCell>
        <mxCell id="w2w5SfIMontvGgBVjQMu-10" value="accept/decline" style="text;html=1;align=center;verticalAlign=middle;resizable=0;points=[];autosize=1;strokeColor=none;fillColor=none;fontSize=9;" vertex="1" parent="htn3oL57G23V9cVcqPmQ-4">
          <mxGeometry x="729.5" y="26.25" width="80" height="20" as="geometry" />
        </mxCell>
        <mxCell id="w2w5SfIMontvGgBVjQMu-11" value="" style="points=[[0.145,0.145,0],[0.5,0,0],[0.855,0.145,0],[1,0.5,0],[0.855,0.855,0],[0.5,1,0],[0.145,0.855,0],[0,0.5,0]];shape=mxgraph.bpmn.event;html=1;verticalLabelPosition=bottom;labelBackgroundColor=#ffffff;verticalAlign=top;align=center;perimeter=ellipsePerimeter;outlineConnect=0;aspect=fixed;outline=standard;symbol=message;" vertex="1" parent="htn3oL57G23V9cVcqPmQ-4">
          <mxGeometry x="59.38" y="35.63" width="23.75" height="23.75" as="geometry" />
        </mxCell>
        <mxCell id="w2w5SfIMontvGgBVjQMu-12" value="" style="sketch=0;outlineConnect=0;fontColor=#232F3E;gradientColor=none;fillColor=#232F3D;strokeColor=none;dashed=0;verticalLabelPosition=bottom;verticalAlign=top;align=center;html=1;fontSize=12;fontStyle=0;aspect=fixed;pointerEvents=1;shape=mxgraph.aws4.user;" vertex="1" parent="htn3oL57G23V9cVcqPmQ-4">
          <mxGeometry x="123" y="30" width="7" height="7" as="geometry" />
        </mxCell>
        <mxCell id="UuxsRoWIycC9HAqe9e0P-1" value="" style="sketch=0;outlineConnect=0;fontColor=#232F3E;gradientColor=none;fillColor=#232F3D;strokeColor=none;dashed=0;verticalLabelPosition=bottom;verticalAlign=top;align=center;html=1;fontSize=12;fontStyle=0;aspect=fixed;pointerEvents=1;shape=mxgraph.aws4.user;" vertex="1" parent="htn3oL57G23V9cVcqPmQ-4">
          <mxGeometry x="207" y="93" width="7" height="7" as="geometry" />
        </mxCell>
        <mxCell id="UuxsRoWIycC9HAqe9e0P-2" value="" style="sketch=0;outlineConnect=0;fontColor=#232F3E;gradientColor=none;fillColor=#232F3D;strokeColor=none;dashed=0;verticalLabelPosition=bottom;verticalAlign=top;align=center;html=1;fontSize=12;fontStyle=0;aspect=fixed;pointerEvents=1;shape=mxgraph.aws4.user;" vertex="1" parent="htn3oL57G23V9cVcqPmQ-4">
          <mxGeometry x="294.87" y="93" width="7" height="7" as="geometry" />
        </mxCell>
        <mxCell id="UuxsRoWIycC9HAqe9e0P-3" value="" style="sketch=0;outlineConnect=0;fontColor=#232F3E;gradientColor=none;fillColor=#232F3D;strokeColor=none;dashed=0;verticalLabelPosition=bottom;verticalAlign=top;align=center;html=1;fontSize=12;fontStyle=0;aspect=fixed;pointerEvents=1;shape=mxgraph.aws4.user;" vertex="1" parent="htn3oL57G23V9cVcqPmQ-4">
          <mxGeometry x="413" y="29.25" width="7" height="7" as="geometry" />
        </mxCell>
        <mxCell id="UuxsRoWIycC9HAqe9e0P-4" value="" style="sketch=0;outlineConnect=0;fontColor=#232F3E;gradientColor=none;fillColor=#232F3D;strokeColor=none;dashed=0;verticalLabelPosition=bottom;verticalAlign=top;align=center;html=1;fontSize=12;fontStyle=0;aspect=fixed;pointerEvents=1;shape=mxgraph.aws4.user;" vertex="1" parent="htn3oL57G23V9cVcqPmQ-4">
          <mxGeometry x="590" y="30" width="7" height="7" as="geometry" />
        </mxCell>
        <mxCell id="htn3oL57G23V9cVcqPmQ-45" value="" style="endArrow=classic;html=1;rounded=0;fontSize=9;targetPerimeterSpacing=0;dashed=1;exitX=0.75;exitY=0;exitDx=0;exitDy=0;" parent="1" source="-DVn-FwIMz4xGNtjaVsw-1" edge="1">
          <mxGeometry width="50" height="50" relative="1" as="geometry">
            <mxPoint x="200" y="-3335" as="sourcePoint" />
            <mxPoint x="182" y="-3430" as="targetPoint" />
          </mxGeometry>
        </mxCell>
        <mxCell id="htn3oL57G23V9cVcqPmQ-46" value="" style="endArrow=classic;html=1;rounded=0;fontSize=9;targetPerimeterSpacing=0;dashed=1;entryX=0.5;entryY=0;entryDx=0;entryDy=0;" parent="1" edge="1">
          <mxGeometry width="50" height="50" relative="1" as="geometry">
            <mxPoint x="72" y="-3430" as="sourcePoint" />
            <mxPoint x="72.375" y="-3323.75" as="targetPoint" />
          </mxGeometry>
        </mxCell>
        <mxCell id="htn3oL57G23V9cVcqPmQ-48" value="application" style="text;html=1;align=center;verticalAlign=middle;resizable=0;points=[];autosize=1;strokeColor=none;fillColor=none;fontSize=9;" parent="1" vertex="1">
          <mxGeometry x="10" y="-3400" width="70" height="20" as="geometry" />
        </mxCell>
        <mxCell id="htn3oL57G23V9cVcqPmQ-49" value="potential&lt;br&gt;approval" style="text;html=1;align=center;verticalAlign=middle;resizable=0;points=[];autosize=1;strokeColor=none;fillColor=none;fontSize=9;" parent="1" vertex="1">
          <mxGeometry x="190" y="-3410" width="60" height="40" as="geometry" />
        </mxCell>
        <mxCell id="-DVn-FwIMz4xGNtjaVsw-21" value="" style="endArrow=classic;html=1;rounded=0;fontSize=9;targetPerimeterSpacing=0;exitX=1;exitY=0.5;exitDx=0;exitDy=0;entryX=0.5;entryY=0;entryDx=0;entryDy=0;dashed=1;" parent="1" source="-DVn-FwIMz4xGNtjaVsw-18" target="-DVn-FwIMz4xGNtjaVsw-17" edge="1">
          <mxGeometry width="50" height="50" relative="1" as="geometry">
            <mxPoint x="310" y="-3200" as="sourcePoint" />
            <mxPoint x="360" y="-3250" as="targetPoint" />
            <Array as="points">
              <mxPoint x="392" y="-3250" />
            </Array>
          </mxGeometry>
        </mxCell>
        <mxCell id="-DVn-FwIMz4xGNtjaVsw-49" value="" style="endArrow=classic;html=1;rounded=0;fontSize=9;targetPerimeterSpacing=0;entryX=0.5;entryY=1;entryDx=0;entryDy=0;dashed=1;" parent="1" target="-DVn-FwIMz4xGNtjaVsw-48" edge="1">
          <mxGeometry width="50" height="50" relative="1" as="geometry">
            <mxPoint x="628" y="-3190" as="sourcePoint" />
            <mxPoint x="686" y="-3260" as="targetPoint" />
          </mxGeometry>
        </mxCell>
        <mxCell id="-DVn-FwIMz4xGNtjaVsw-54" value="" style="endArrow=classic;html=1;rounded=0;fontSize=9;targetPerimeterSpacing=0;exitX=1;exitY=0.5;exitDx=0;exitDy=0;entryX=0.5;entryY=0;entryDx=0;entryDy=0;" parent="1" source="-DVn-FwIMz4xGNtjaVsw-48" target="-DVn-FwIMz4xGNtjaVsw-52" edge="1">
          <mxGeometry width="50" height="50" relative="1" as="geometry">
            <mxPoint x="636" y="-3150" as="sourcePoint" />
            <mxPoint x="686" y="-3200" as="targetPoint" />
            <Array as="points">
              <mxPoint x="782" y="-3312" />
            </Array>
          </mxGeometry>
        </mxCell>
        <mxCell id="-DVn-FwIMz4xGNtjaVsw-61" value="Notary service" style="swimlane;horizontal=0;" parent="1" vertex="1">
          <mxGeometry y="-2700" width="1630" height="100" as="geometry" />
        </mxCell>
        <mxCell id="-DVn-FwIMz4xGNtjaVsw-80" value="" style="endArrow=classic;html=1;rounded=0;fontSize=9;targetPerimeterSpacing=0;exitX=0.5;exitY=0;exitDx=0;exitDy=0;dashed=1;" parent="1" source="-DVn-FwIMz4xGNtjaVsw-78" edge="1">
          <mxGeometry width="50" height="50" relative="1" as="geometry">
            <mxPoint x="1186" y="-3170" as="sourcePoint" />
            <mxPoint x="1172" y="-3430" as="targetPoint" />
          </mxGeometry>
        </mxCell>
        <mxCell id="-DVn-FwIMz4xGNtjaVsw-98" value="acknowledgement" style="text;html=1;align=center;verticalAlign=middle;resizable=0;points=[];autosize=1;strokeColor=none;fillColor=none;fontSize=9;" parent="1" vertex="1">
          <mxGeometry x="1170" y="-3400" width="100" height="20" as="geometry" />
        </mxCell>
        <mxCell id="-DVn-FwIMz4xGNtjaVsw-99" value="" style="endArrow=classic;html=1;rounded=0;fontSize=9;targetPerimeterSpacing=0;exitX=0.75;exitY=0;exitDx=0;exitDy=0;dashed=1;" parent="1" source="-DVn-FwIMz4xGNtjaVsw-90" edge="1">
          <mxGeometry width="50" height="50" relative="1" as="geometry">
            <mxPoint x="1606" y="-3200" as="sourcePoint" />
            <mxPoint x="1533" y="-3430" as="targetPoint" />
          </mxGeometry>
        </mxCell>
        <mxCell id="-DVn-FwIMz4xGNtjaVsw-100" value="information" style="text;html=1;align=center;verticalAlign=middle;resizable=0;points=[];autosize=1;strokeColor=none;fillColor=none;fontSize=9;" parent="1" vertex="1">
          <mxGeometry x="1530" y="-3410" width="70" height="20" as="geometry" />
        </mxCell>
        <mxCell id="-DVn-FwIMz4xGNtjaVsw-101" value="" style="endArrow=classic;html=1;rounded=0;dashed=1;fontSize=9;targetPerimeterSpacing=0;exitX=0.25;exitY=0;exitDx=0;exitDy=0;" parent="1" edge="1">
          <mxGeometry width="50" height="50" relative="1" as="geometry">
            <mxPoint x="591.4475" y="-3332.5" as="sourcePoint" />
            <mxPoint x="590" y="-3430" as="targetPoint" />
          </mxGeometry>
        </mxCell>
        <mxCell id="-DVn-FwIMz4xGNtjaVsw-102" value="letter" style="text;html=1;align=center;verticalAlign=middle;resizable=0;points=[];autosize=1;strokeColor=none;fillColor=none;fontSize=9;" parent="1" vertex="1">
          <mxGeometry x="550" y="-3410" width="40" height="20" as="geometry" />
        </mxCell>
        <mxCell id="-DVn-FwIMz4xGNtjaVsw-103" value="" style="endArrow=classic;html=1;rounded=0;dashed=1;fontSize=9;targetPerimeterSpacing=0;entryX=0.75;entryY=0;entryDx=0;entryDy=0;" parent="1" edge="1">
          <mxGeometry width="50" height="50" relative="1" as="geometry">
            <mxPoint x="610.68" y="-3430" as="sourcePoint" />
            <mxPoint x="610.0024999999999" y="-3332.5" as="targetPoint" />
          </mxGeometry>
        </mxCell>
        <mxCell id="-DVn-FwIMz4xGNtjaVsw-104" value="accept/decline" style="text;html=1;align=center;verticalAlign=middle;resizable=0;points=[];autosize=1;strokeColor=none;fillColor=none;fontSize=9;" parent="1" vertex="1">
          <mxGeometry x="610" y="-3400" width="80" height="20" as="geometry" />
        </mxCell>
        <mxCell id="oFlLQU60bPr8UDns7WKE-2" value="Company" style="swimlane;horizontal=0;whiteSpace=wrap;html=1;" parent="1" vertex="1">
          <mxGeometry y="-3210" width="1630" height="490" as="geometry" />
        </mxCell>
        <mxCell id="htn3oL57G23V9cVcqPmQ-15" value="BestLoans" style="swimlane;horizontal=0;startSize=29;" parent="oFlLQU60bPr8UDns7WKE-2" vertex="1">
          <mxGeometry x="21.5" width="1608.5" height="140" as="geometry" />
        </mxCell>
        <mxCell id="-DVn-FwIMz4xGNtjaVsw-9" value="Enable direct contact" style="rounded=1;whiteSpace=wrap;html=1;strokeWidth=1;fontSize=9;fillColor=none;" parent="htn3oL57G23V9cVcqPmQ-15" vertex="1">
          <mxGeometry x="181.5" y="38.75" width="83.75" height="40" as="geometry" />
        </mxCell>
        <mxCell id="-DVn-FwIMz4xGNtjaVsw-17" value="Process application" style="rounded=1;whiteSpace=wrap;html=1;strokeWidth=1;fontSize=9;fillColor=none;" parent="htn3oL57G23V9cVcqPmQ-15" vertex="1">
          <mxGeometry x="328.5" y="38.75" width="83.75" height="40" as="geometry" />
        </mxCell>
        <mxCell id="-DVn-FwIMz4xGNtjaVsw-20" value="" style="endArrow=classic;html=1;rounded=0;fontSize=9;targetPerimeterSpacing=0;exitX=1;exitY=0.5;exitDx=0;exitDy=0;entryX=0;entryY=0.5;entryDx=0;entryDy=0;" parent="htn3oL57G23V9cVcqPmQ-15" source="-DVn-FwIMz4xGNtjaVsw-9" target="-DVn-FwIMz4xGNtjaVsw-17" edge="1">
          <mxGeometry width="50" height="50" relative="1" as="geometry">
            <mxPoint x="301" y="-10" as="sourcePoint" />
            <mxPoint x="351" y="-60" as="targetPoint" />
          </mxGeometry>
        </mxCell>
        <mxCell id="-DVn-FwIMz4xGNtjaVsw-70" value="yes" style="text;html=1;align=center;verticalAlign=middle;resizable=0;points=[];autosize=1;strokeColor=none;fillColor=none;fontSize=9;" parent="htn3oL57G23V9cVcqPmQ-15" vertex="1">
          <mxGeometry x="810.38" y="38.75" width="40" height="20" as="geometry" />
        </mxCell>
        <mxCell id="-DVn-FwIMz4xGNtjaVsw-71" value="no" style="text;html=1;align=center;verticalAlign=middle;resizable=0;points=[];autosize=1;strokeColor=none;fillColor=none;fontSize=9;" parent="htn3oL57G23V9cVcqPmQ-15" vertex="1">
          <mxGeometry x="800.38" y="3" width="30" height="20" as="geometry" />
        </mxCell>
        <mxCell id="-DVn-FwIMz4xGNtjaVsw-77" value="yes" style="text;html=1;align=center;verticalAlign=middle;resizable=0;points=[];autosize=1;strokeColor=none;fillColor=none;fontSize=9;" parent="htn3oL57G23V9cVcqPmQ-15" vertex="1">
          <mxGeometry x="960.38" y="40" width="40" height="20" as="geometry" />
        </mxCell>
        <mxCell id="-DVn-FwIMz4xGNtjaVsw-83" value="" style="endArrow=classic;html=1;rounded=0;fontSize=9;targetPerimeterSpacing=0;exitX=0.5;exitY=1;exitDx=0;exitDy=0;dashed=1;" parent="htn3oL57G23V9cVcqPmQ-15" source="-DVn-FwIMz4xGNtjaVsw-60" edge="1">
          <mxGeometry width="50" height="50" relative="1" as="geometry">
            <mxPoint x="1173.88" y="360" as="sourcePoint" />
            <mxPoint x="1171.5" y="510" as="targetPoint" />
          </mxGeometry>
        </mxCell>
        <mxCell id="-DVn-FwIMz4xGNtjaVsw-85" value="" style="endArrow=classic;html=1;rounded=0;fontSize=9;targetPerimeterSpacing=0;entryX=0.5;entryY=1;entryDx=0;entryDy=0;dashed=1;" parent="htn3oL57G23V9cVcqPmQ-15" target="-DVn-FwIMz4xGNtjaVsw-84" edge="1">
          <mxGeometry width="50" height="50" relative="1" as="geometry">
            <mxPoint x="1271.5" y="510" as="sourcePoint" />
            <mxPoint x="1223.88" y="370" as="targetPoint" />
            <Array as="points" />
          </mxGeometry>
        </mxCell>
        <mxCell id="-DVn-FwIMz4xGNtjaVsw-106" value="no" style="text;html=1;align=center;verticalAlign=middle;resizable=0;points=[];autosize=1;strokeColor=none;fillColor=none;fontSize=9;" parent="htn3oL57G23V9cVcqPmQ-15" vertex="1">
          <mxGeometry x="960.38" y="78.75" width="30" height="20" as="geometry" />
        </mxCell>
        <mxCell id="-DVn-FwIMz4xGNtjaVsw-22" value="X" style="rhombus;whiteSpace=wrap;html=1;strokeWidth=1;fontSize=9;fillColor=none;" parent="htn3oL57G23V9cVcqPmQ-15" vertex="1">
          <mxGeometry x="447.25" y="48.75" width="20" height="20" as="geometry" />
        </mxCell>
        <mxCell id="-DVn-FwIMz4xGNtjaVsw-23" value="" style="endArrow=classic;html=1;rounded=0;fontSize=9;targetPerimeterSpacing=0;exitX=1;exitY=0.5;exitDx=0;exitDy=0;entryX=0;entryY=0.5;entryDx=0;entryDy=0;" parent="htn3oL57G23V9cVcqPmQ-15" source="-DVn-FwIMz4xGNtjaVsw-17" target="-DVn-FwIMz4xGNtjaVsw-22" edge="1">
          <mxGeometry width="50" height="50" relative="1" as="geometry">
            <mxPoint x="415.13" y="58.75" as="sourcePoint" />
            <mxPoint x="386.25" y="4523.75" as="targetPoint" />
          </mxGeometry>
        </mxCell>
        <mxCell id="-DVn-FwIMz4xGNtjaVsw-24" value="yes" style="text;html=1;align=center;verticalAlign=middle;resizable=0;points=[];autosize=1;strokeColor=none;fillColor=none;fontSize=9;" parent="htn3oL57G23V9cVcqPmQ-15" vertex="1">
          <mxGeometry x="447.25" y="73" width="40" height="20" as="geometry" />
        </mxCell>
        <mxCell id="-DVn-FwIMz4xGNtjaVsw-25" value="Was it processed&lt;br&gt;directly?" style="text;html=1;align=center;verticalAlign=middle;resizable=0;points=[];autosize=1;strokeColor=none;fillColor=none;fontSize=9;" parent="htn3oL57G23V9cVcqPmQ-15" vertex="1">
          <mxGeometry x="412.25" y="8.75" width="90" height="40" as="geometry" />
        </mxCell>
        <mxCell id="-DVn-FwIMz4xGNtjaVsw-43" value="Send approval or&lt;br&gt;rejection letter" style="rounded=1;whiteSpace=wrap;html=1;strokeWidth=1;fontSize=9;fillColor=none;" parent="htn3oL57G23V9cVcqPmQ-15" vertex="1">
          <mxGeometry x="646.38" y="38.75" width="83.75" height="40" as="geometry" />
        </mxCell>
        <mxCell id="-DVn-FwIMz4xGNtjaVsw-44" value="X" style="rhombus;whiteSpace=wrap;html=1;strokeWidth=1;fontSize=9;fillColor=none;" parent="htn3oL57G23V9cVcqPmQ-15" vertex="1">
          <mxGeometry x="595.38" y="88.75" width="20" height="21.25" as="geometry" />
        </mxCell>
        <mxCell id="-DVn-FwIMz4xGNtjaVsw-45" value="broker involved?" style="text;html=1;align=center;verticalAlign=middle;resizable=0;points=[];autosize=1;strokeColor=none;fillColor=none;fontSize=9;" parent="htn3oL57G23V9cVcqPmQ-15" vertex="1">
          <mxGeometry x="605.38" y="98.75" width="90" height="20" as="geometry" />
        </mxCell>
        <mxCell id="-DVn-FwIMz4xGNtjaVsw-46" value="" style="endArrow=classic;html=1;rounded=0;fontSize=9;targetPerimeterSpacing=0;exitX=1;exitY=0.5;exitDx=0;exitDy=0;entryX=0;entryY=0.5;entryDx=0;entryDy=0;" parent="htn3oL57G23V9cVcqPmQ-15" source="-DVn-FwIMz4xGNtjaVsw-44" target="-DVn-FwIMz4xGNtjaVsw-43" edge="1">
          <mxGeometry width="50" height="50" relative="1" as="geometry">
            <mxPoint x="616.38" y="120" as="sourcePoint" />
            <mxPoint x="666.38" y="70" as="targetPoint" />
            <Array as="points">
              <mxPoint x="628.5" y="99" />
              <mxPoint x="628.5" y="59" />
            </Array>
          </mxGeometry>
        </mxCell>
        <mxCell id="-DVn-FwIMz4xGNtjaVsw-50" value="yes" style="text;html=1;align=center;verticalAlign=middle;resizable=0;points=[];autosize=1;strokeColor=none;fillColor=none;fontSize=9;" parent="htn3oL57G23V9cVcqPmQ-15" vertex="1">
          <mxGeometry x="555.38" y="68.75" width="40" height="20" as="geometry" />
        </mxCell>
        <mxCell id="-DVn-FwIMz4xGNtjaVsw-51" value="no" style="text;html=1;align=center;verticalAlign=middle;resizable=0;points=[];autosize=1;strokeColor=none;fillColor=none;fontSize=9;" parent="htn3oL57G23V9cVcqPmQ-15" vertex="1">
          <mxGeometry x="628.5" y="78.75" width="30" height="20" as="geometry" />
        </mxCell>
        <mxCell id="-DVn-FwIMz4xGNtjaVsw-52" value="X" style="rhombus;whiteSpace=wrap;html=1;strokeWidth=1;fontSize=9;fillColor=none;" parent="htn3oL57G23V9cVcqPmQ-15" vertex="1">
          <mxGeometry x="750.38" y="48.75" width="20" height="20" as="geometry" />
        </mxCell>
        <mxCell id="-DVn-FwIMz4xGNtjaVsw-53" value="" style="endArrow=classic;html=1;rounded=0;fontSize=9;targetPerimeterSpacing=0;exitX=1;exitY=0.5;exitDx=0;exitDy=0;entryX=0;entryY=0.5;entryDx=0;entryDy=0;" parent="htn3oL57G23V9cVcqPmQ-15" source="-DVn-FwIMz4xGNtjaVsw-43" target="-DVn-FwIMz4xGNtjaVsw-52" edge="1">
          <mxGeometry width="50" height="50" relative="1" as="geometry">
            <mxPoint x="616.38" y="60" as="sourcePoint" />
            <mxPoint x="666.38" y="10" as="targetPoint" />
          </mxGeometry>
        </mxCell>
        <mxCell id="-DVn-FwIMz4xGNtjaVsw-55" value="Approved?" style="text;html=1;align=center;verticalAlign=middle;resizable=0;points=[];autosize=1;strokeColor=none;fillColor=none;fontSize=9;" parent="htn3oL57G23V9cVcqPmQ-15" vertex="1">
          <mxGeometry x="701.63" y="8.75" width="70" height="20" as="geometry" />
        </mxCell>
        <mxCell id="-DVn-FwIMz4xGNtjaVsw-58" value="" style="ellipse;whiteSpace=wrap;html=1;aspect=fixed;strokeWidth=1;fillColor=none;" parent="htn3oL57G23V9cVcqPmQ-15" vertex="1">
          <mxGeometry x="749.13" y="87.5" width="22.5" height="22.5" as="geometry" />
        </mxCell>
        <mxCell id="-DVn-FwIMz4xGNtjaVsw-59" value="Cancel application" style="text;html=1;align=center;verticalAlign=middle;resizable=0;points=[];autosize=1;strokeColor=none;fillColor=none;fontSize=9;" parent="htn3oL57G23V9cVcqPmQ-15" vertex="1">
          <mxGeometry x="710.38" y="110" width="100" height="20" as="geometry" />
        </mxCell>
        <mxCell id="-DVn-FwIMz4xGNtjaVsw-56" value="" style="endArrow=classic;html=1;rounded=0;fontSize=9;targetPerimeterSpacing=0;entryX=0.5;entryY=0;entryDx=0;entryDy=0;exitX=0.5;exitY=1;exitDx=0;exitDy=0;" parent="htn3oL57G23V9cVcqPmQ-15" source="-DVn-FwIMz4xGNtjaVsw-52" target="-DVn-FwIMz4xGNtjaVsw-58" edge="1">
          <mxGeometry width="50" height="50" relative="1" as="geometry">
            <mxPoint x="761.38" y="70" as="sourcePoint" />
            <mxPoint x="810.38" y="59" as="targetPoint" />
          </mxGeometry>
        </mxCell>
        <mxCell id="-DVn-FwIMz4xGNtjaVsw-57" value="no" style="text;html=1;align=center;verticalAlign=middle;resizable=0;points=[];autosize=1;strokeColor=none;fillColor=none;fontSize=9;" parent="htn3oL57G23V9cVcqPmQ-15" vertex="1">
          <mxGeometry x="730.38" y="67.5" width="30" height="20" as="geometry" />
        </mxCell>
        <mxCell id="-DVn-FwIMz4xGNtjaVsw-63" value="X" style="rhombus;whiteSpace=wrap;html=1;strokeWidth=1;fontSize=9;fillColor=none;" parent="htn3oL57G23V9cVcqPmQ-15" vertex="1">
          <mxGeometry x="800.38" y="48.75" width="20" height="20" as="geometry" />
        </mxCell>
        <mxCell id="-DVn-FwIMz4xGNtjaVsw-62" value="" style="endArrow=classic;html=1;rounded=0;fontSize=9;targetPerimeterSpacing=0;exitX=1;exitY=0.5;exitDx=0;exitDy=0;entryX=0;entryY=0.5;entryDx=0;entryDy=0;" parent="htn3oL57G23V9cVcqPmQ-15" source="-DVn-FwIMz4xGNtjaVsw-52" target="-DVn-FwIMz4xGNtjaVsw-63" edge="1">
          <mxGeometry width="50" height="50" relative="1" as="geometry">
            <mxPoint x="840.38" y="70" as="sourcePoint" />
            <mxPoint x="800.38" y="59" as="targetPoint" />
          </mxGeometry>
        </mxCell>
        <mxCell id="-DVn-FwIMz4xGNtjaVsw-64" value="contact through&lt;br&gt;BestLoans?" style="text;html=1;align=center;verticalAlign=middle;resizable=0;points=[];autosize=1;strokeColor=none;fillColor=none;fontSize=9;" parent="htn3oL57G23V9cVcqPmQ-15" vertex="1">
          <mxGeometry x="760.5" y="63" width="90" height="40" as="geometry" />
        </mxCell>
        <mxCell id="-DVn-FwIMz4xGNtjaVsw-65" value="Apply reduction" style="rounded=1;whiteSpace=wrap;html=1;strokeWidth=1;fontSize=9;fillColor=none;" parent="htn3oL57G23V9cVcqPmQ-15" vertex="1">
          <mxGeometry x="840.38" y="38.75" width="83.75" height="40" as="geometry" />
        </mxCell>
        <mxCell id="-DVn-FwIMz4xGNtjaVsw-66" value="X" style="rhombus;whiteSpace=wrap;html=1;strokeWidth=1;fontSize=9;fillColor=none;" parent="htn3oL57G23V9cVcqPmQ-15" vertex="1">
          <mxGeometry x="955.38" y="48.75" width="20" height="20" as="geometry" />
        </mxCell>
        <mxCell id="-DVn-FwIMz4xGNtjaVsw-67" value="" style="endArrow=classic;html=1;rounded=0;fontSize=9;targetPerimeterSpacing=0;exitX=1;exitY=0.5;exitDx=0;exitDy=0;entryX=0;entryY=0.5;entryDx=0;entryDy=0;" parent="htn3oL57G23V9cVcqPmQ-15" source="-DVn-FwIMz4xGNtjaVsw-63" target="-DVn-FwIMz4xGNtjaVsw-65" edge="1">
          <mxGeometry width="50" height="50" relative="1" as="geometry">
            <mxPoint x="840.38" y="80" as="sourcePoint" />
            <mxPoint x="890.38" y="30" as="targetPoint" />
          </mxGeometry>
        </mxCell>
        <mxCell id="-DVn-FwIMz4xGNtjaVsw-68" value="" style="endArrow=classic;html=1;rounded=0;fontSize=9;targetPerimeterSpacing=0;exitX=1;exitY=0.5;exitDx=0;exitDy=0;entryX=0;entryY=0.5;entryDx=0;entryDy=0;" parent="htn3oL57G23V9cVcqPmQ-15" source="-DVn-FwIMz4xGNtjaVsw-65" target="-DVn-FwIMz4xGNtjaVsw-66" edge="1">
          <mxGeometry width="50" height="50" relative="1" as="geometry">
            <mxPoint x="825.38" y="80" as="sourcePoint" />
            <mxPoint x="875.38" y="30" as="targetPoint" />
          </mxGeometry>
        </mxCell>
        <mxCell id="-DVn-FwIMz4xGNtjaVsw-72" value="" style="endArrow=classic;html=1;rounded=0;fontSize=9;targetPerimeterSpacing=0;exitX=0.5;exitY=0;exitDx=0;exitDy=0;entryX=0.5;entryY=0;entryDx=0;entryDy=0;" parent="htn3oL57G23V9cVcqPmQ-15" source="-DVn-FwIMz4xGNtjaVsw-63" target="-DVn-FwIMz4xGNtjaVsw-66" edge="1">
          <mxGeometry width="50" height="50" relative="1" as="geometry">
            <mxPoint x="890.38" y="80" as="sourcePoint" />
            <mxPoint x="940.38" y="30" as="targetPoint" />
            <Array as="points">
              <mxPoint x="810.38" y="20" />
              <mxPoint x="965.38" y="20" />
            </Array>
          </mxGeometry>
        </mxCell>
        <mxCell id="-DVn-FwIMz4xGNtjaVsw-74" value="full process online?" style="text;html=1;align=center;verticalAlign=middle;resizable=0;points=[];autosize=1;strokeColor=none;fillColor=none;fontSize=9;" parent="htn3oL57G23V9cVcqPmQ-15" vertex="1">
          <mxGeometry x="955.38" y="18.75" width="100" height="20" as="geometry" />
        </mxCell>
        <mxCell id="-DVn-FwIMz4xGNtjaVsw-75" value="Apply reduction" style="rounded=1;whiteSpace=wrap;html=1;strokeWidth=1;fontSize=9;fillColor=none;" parent="htn3oL57G23V9cVcqPmQ-15" vertex="1">
          <mxGeometry x="1000.38" y="38.75" width="83.75" height="40" as="geometry" />
        </mxCell>
        <mxCell id="-DVn-FwIMz4xGNtjaVsw-76" value="" style="endArrow=classic;html=1;rounded=0;fontSize=9;targetPerimeterSpacing=0;exitX=1;exitY=0.5;exitDx=0;exitDy=0;entryX=0;entryY=0.5;entryDx=0;entryDy=0;" parent="htn3oL57G23V9cVcqPmQ-15" source="-DVn-FwIMz4xGNtjaVsw-66" target="-DVn-FwIMz4xGNtjaVsw-75" edge="1">
          <mxGeometry width="50" height="50" relative="1" as="geometry">
            <mxPoint x="925.38" y="80" as="sourcePoint" />
            <mxPoint x="975.38" y="30" as="targetPoint" />
          </mxGeometry>
        </mxCell>
        <mxCell id="-DVn-FwIMz4xGNtjaVsw-78" value="Register application" style="rounded=1;whiteSpace=wrap;html=1;strokeWidth=1;fontSize=9;fillColor=none;" parent="htn3oL57G23V9cVcqPmQ-15" vertex="1">
          <mxGeometry x="1110.38" y="38.75" width="83.75" height="40" as="geometry" />
        </mxCell>
        <mxCell id="-DVn-FwIMz4xGNtjaVsw-105" value="" style="endArrow=classic;html=1;rounded=0;fontSize=9;targetPerimeterSpacing=0;exitX=0.5;exitY=1;exitDx=0;exitDy=0;entryX=0.25;entryY=1;entryDx=0;entryDy=0;" parent="htn3oL57G23V9cVcqPmQ-15" source="-DVn-FwIMz4xGNtjaVsw-66" target="-DVn-FwIMz4xGNtjaVsw-78" edge="1">
          <mxGeometry width="50" height="50" relative="1" as="geometry">
            <mxPoint x="970.38" y="30" as="sourcePoint" />
            <mxPoint x="1020.38" y="-20" as="targetPoint" />
            <Array as="points">
              <mxPoint x="965.38" y="100" />
              <mxPoint x="1131.38" y="100" />
            </Array>
          </mxGeometry>
        </mxCell>
        <mxCell id="-DVn-FwIMz4xGNtjaVsw-79" value="" style="endArrow=classic;html=1;rounded=0;fontSize=9;targetPerimeterSpacing=0;exitX=1;exitY=0.5;exitDx=0;exitDy=0;entryX=0;entryY=0.5;entryDx=0;entryDy=0;" parent="htn3oL57G23V9cVcqPmQ-15" source="-DVn-FwIMz4xGNtjaVsw-75" target="-DVn-FwIMz4xGNtjaVsw-78" edge="1">
          <mxGeometry width="50" height="50" relative="1" as="geometry">
            <mxPoint x="1165.38" y="110" as="sourcePoint" />
            <mxPoint x="1145.38" y="59" as="targetPoint" />
          </mxGeometry>
        </mxCell>
        <mxCell id="-DVn-FwIMz4xGNtjaVsw-27" value="+" style="rhombus;whiteSpace=wrap;html=1;strokeWidth=1;fontSize=9;fillColor=none;" parent="htn3oL57G23V9cVcqPmQ-15" vertex="1">
          <mxGeometry x="446.25" y="180" width="20" height="20" as="geometry" />
        </mxCell>
        <mxCell id="-DVn-FwIMz4xGNtjaVsw-29" value="Check credit" style="rounded=1;whiteSpace=wrap;html=1;strokeWidth=1;fontSize=9;fillColor=none;" parent="htn3oL57G23V9cVcqPmQ-15" vertex="1">
          <mxGeometry x="495.25" y="170" width="83.75" height="40" as="geometry" />
        </mxCell>
        <mxCell id="-DVn-FwIMz4xGNtjaVsw-30" value="" style="endArrow=classic;html=1;rounded=0;fontSize=9;targetPerimeterSpacing=0;exitX=1;exitY=0.5;exitDx=0;exitDy=0;entryX=0;entryY=0.5;entryDx=0;entryDy=0;" parent="htn3oL57G23V9cVcqPmQ-15" source="-DVn-FwIMz4xGNtjaVsw-27" target="-DVn-FwIMz4xGNtjaVsw-29" edge="1">
          <mxGeometry width="50" height="50" relative="1" as="geometry">
            <mxPoint x="399.38" y="300" as="sourcePoint" />
            <mxPoint x="449.38" y="250" as="targetPoint" />
          </mxGeometry>
        </mxCell>
        <mxCell id="-DVn-FwIMz4xGNtjaVsw-37" value="+" style="rhombus;whiteSpace=wrap;html=1;strokeWidth=1;fontSize=9;fillColor=none;" parent="htn3oL57G23V9cVcqPmQ-15" vertex="1">
          <mxGeometry x="595.38" y="180" width="20" height="20" as="geometry" />
        </mxCell>
        <mxCell id="-DVn-FwIMz4xGNtjaVsw-38" value="" style="endArrow=classic;html=1;rounded=0;fontSize=9;targetPerimeterSpacing=0;exitX=1;exitY=0.5;exitDx=0;exitDy=0;entryX=0;entryY=0.5;entryDx=0;entryDy=0;" parent="htn3oL57G23V9cVcqPmQ-15" source="-DVn-FwIMz4xGNtjaVsw-29" target="-DVn-FwIMz4xGNtjaVsw-37" edge="1">
          <mxGeometry width="50" height="50" relative="1" as="geometry">
            <mxPoint x="544.9999999999999" y="190" as="sourcePoint" />
            <mxPoint x="665.38" y="200" as="targetPoint" />
          </mxGeometry>
        </mxCell>
        <mxCell id="-DVn-FwIMz4xGNtjaVsw-60" value="Draft deed" style="rounded=1;whiteSpace=wrap;html=1;strokeWidth=1;fontSize=9;fillColor=none;" parent="htn3oL57G23V9cVcqPmQ-15" vertex="1">
          <mxGeometry x="1129.38" y="175" width="83.75" height="40" as="geometry" />
        </mxCell>
        <mxCell id="-DVn-FwIMz4xGNtjaVsw-84" value="Receive signed&lt;br&gt;deed" style="rounded=1;whiteSpace=wrap;html=1;strokeWidth=1;fontSize=9;fillColor=none;" parent="htn3oL57G23V9cVcqPmQ-15" vertex="1">
          <mxGeometry x="1229.38" y="175" width="83.75" height="40" as="geometry" />
        </mxCell>
        <mxCell id="-DVn-FwIMz4xGNtjaVsw-92" value="Submit disbursement request" style="rounded=1;whiteSpace=wrap;html=1;strokeWidth=1;fontSize=9;fillColor=none;" parent="htn3oL57G23V9cVcqPmQ-15" vertex="1">
          <mxGeometry x="1396.88" y="175" width="83.75" height="40" as="geometry" />
        </mxCell>
        <mxCell id="-DVn-FwIMz4xGNtjaVsw-28" value="" style="endArrow=classic;html=1;rounded=0;fontSize=9;targetPerimeterSpacing=0;exitX=0.5;exitY=1;exitDx=0;exitDy=0;entryX=0.5;entryY=0;entryDx=0;entryDy=0;" parent="htn3oL57G23V9cVcqPmQ-15" source="-DVn-FwIMz4xGNtjaVsw-22" target="-DVn-FwIMz4xGNtjaVsw-27" edge="1">
          <mxGeometry width="50" height="50" relative="1" as="geometry">
            <mxPoint x="398.88" y="160" as="sourcePoint" />
            <mxPoint x="448.88" y="110" as="targetPoint" />
          </mxGeometry>
        </mxCell>
        <mxCell id="-DVn-FwIMz4xGNtjaVsw-42" value="" style="endArrow=classic;html=1;rounded=0;fontSize=9;targetPerimeterSpacing=0;exitX=0.5;exitY=0;exitDx=0;exitDy=0;entryX=0.5;entryY=1;entryDx=0;entryDy=0;" parent="htn3oL57G23V9cVcqPmQ-15" source="-DVn-FwIMz4xGNtjaVsw-37" target="-DVn-FwIMz4xGNtjaVsw-44" edge="1">
          <mxGeometry width="50" height="50" relative="1" as="geometry">
            <mxPoint x="614.88" y="130" as="sourcePoint" />
            <mxPoint x="604.88" y="80" as="targetPoint" />
          </mxGeometry>
        </mxCell>
        <mxCell id="-DVn-FwIMz4xGNtjaVsw-81" value="" style="endArrow=classic;html=1;rounded=0;fontSize=9;targetPerimeterSpacing=0;exitX=0.75;exitY=1;exitDx=0;exitDy=0;" parent="htn3oL57G23V9cVcqPmQ-15" source="-DVn-FwIMz4xGNtjaVsw-78" edge="1">
          <mxGeometry width="50" height="50" relative="1" as="geometry">
            <mxPoint x="1123.88" y="110" as="sourcePoint" />
            <mxPoint x="1173.5" y="175" as="targetPoint" />
            <Array as="points" />
          </mxGeometry>
        </mxCell>
        <mxCell id="-DVn-FwIMz4xGNtjaVsw-32" value="X" style="rhombus;whiteSpace=wrap;html=1;strokeWidth=1;fontSize=9;fillColor=none;" parent="htn3oL57G23V9cVcqPmQ-15" vertex="1">
          <mxGeometry x="446.25" y="300" width="20" height="20" as="geometry" />
        </mxCell>
        <mxCell id="-DVn-FwIMz4xGNtjaVsw-34" value="Make mortgage&lt;br&gt;insurance offer" style="rounded=1;whiteSpace=wrap;html=1;strokeWidth=1;fontSize=9;fillColor=none;" parent="htn3oL57G23V9cVcqPmQ-15" vertex="1">
          <mxGeometry x="493" y="290" width="83.75" height="40" as="geometry" />
        </mxCell>
        <mxCell id="-DVn-FwIMz4xGNtjaVsw-35" value="" style="endArrow=classic;html=1;rounded=0;fontSize=9;targetPerimeterSpacing=0;exitX=1;exitY=0.5;exitDx=0;exitDy=0;entryX=0;entryY=0.5;entryDx=0;entryDy=0;" parent="htn3oL57G23V9cVcqPmQ-15" source="-DVn-FwIMz4xGNtjaVsw-32" target="-DVn-FwIMz4xGNtjaVsw-34" edge="1">
          <mxGeometry width="50" height="50" relative="1" as="geometry">
            <mxPoint x="489.38" y="310" as="sourcePoint" />
            <mxPoint x="539.38" y="260" as="targetPoint" />
          </mxGeometry>
        </mxCell>
        <mxCell id="-DVn-FwIMz4xGNtjaVsw-36" value="yes" style="text;html=1;align=center;verticalAlign=middle;resizable=0;points=[];autosize=1;strokeColor=none;fillColor=none;fontSize=9;" parent="htn3oL57G23V9cVcqPmQ-15" vertex="1">
          <mxGeometry x="453" y="290" width="40" height="20" as="geometry" />
        </mxCell>
        <mxCell id="-DVn-FwIMz4xGNtjaVsw-41" value="no" style="text;html=1;align=center;verticalAlign=middle;resizable=0;points=[];autosize=1;strokeColor=none;fillColor=none;fontSize=9;" parent="htn3oL57G23V9cVcqPmQ-15" vertex="1">
          <mxGeometry x="429.38" y="320" width="30" height="20" as="geometry" />
        </mxCell>
        <mxCell id="-DVn-FwIMz4xGNtjaVsw-86" value="Make insurance&lt;br&gt;contract" style="rounded=1;whiteSpace=wrap;html=1;strokeWidth=1;fontSize=9;fillColor=none;" parent="htn3oL57G23V9cVcqPmQ-15" vertex="1">
          <mxGeometry x="1314.13" y="290" width="83.75" height="40" as="geometry" />
        </mxCell>
        <mxCell id="-DVn-FwIMz4xGNtjaVsw-31" value="" style="endArrow=classic;html=1;rounded=0;fontSize=9;targetPerimeterSpacing=0;exitX=0.5;exitY=1;exitDx=0;exitDy=0;entryX=0.5;entryY=0;entryDx=0;entryDy=0;" parent="htn3oL57G23V9cVcqPmQ-15" source="-DVn-FwIMz4xGNtjaVsw-27" target="-DVn-FwIMz4xGNtjaVsw-32" edge="1">
          <mxGeometry width="50" height="50" relative="1" as="geometry">
            <mxPoint x="398.88" y="310" as="sourcePoint" />
            <mxPoint x="458.88" y="320" as="targetPoint" />
          </mxGeometry>
        </mxCell>
        <mxCell id="-DVn-FwIMz4xGNtjaVsw-39" value="" style="endArrow=classic;html=1;rounded=0;fontSize=9;targetPerimeterSpacing=0;exitX=1;exitY=0.5;exitDx=0;exitDy=0;entryX=0.5;entryY=1;entryDx=0;entryDy=0;" parent="htn3oL57G23V9cVcqPmQ-15" source="-DVn-FwIMz4xGNtjaVsw-34" target="-DVn-FwIMz4xGNtjaVsw-37" edge="1">
          <mxGeometry width="50" height="50" relative="1" as="geometry">
            <mxPoint x="541.2499999999999" y="330" as="sourcePoint" />
            <mxPoint x="664.88" y="210" as="targetPoint" />
            <Array as="points">
              <mxPoint x="605.88" y="310" />
            </Array>
          </mxGeometry>
        </mxCell>
        <mxCell id="-DVn-FwIMz4xGNtjaVsw-88" value="" style="endArrow=classic;html=1;rounded=0;fontSize=9;targetPerimeterSpacing=0;exitX=1;exitY=0.5;exitDx=0;exitDy=0;entryX=0.5;entryY=0;entryDx=0;entryDy=0;" parent="htn3oL57G23V9cVcqPmQ-15" source="-DVn-FwIMz4xGNtjaVsw-84" target="-DVn-FwIMz4xGNtjaVsw-86" edge="1">
          <mxGeometry width="50" height="50" relative="1" as="geometry">
            <mxPoint x="1343.88" y="270" as="sourcePoint" />
            <mxPoint x="1393.88" y="220" as="targetPoint" />
            <Array as="points">
              <mxPoint x="1356.5" y="195" />
            </Array>
          </mxGeometry>
        </mxCell>
        <mxCell id="-DVn-FwIMz4xGNtjaVsw-93" value="" style="endArrow=classic;html=1;rounded=0;fontSize=9;targetPerimeterSpacing=0;exitX=1;exitY=0.5;exitDx=0;exitDy=0;entryX=0.5;entryY=1;entryDx=0;entryDy=0;" parent="htn3oL57G23V9cVcqPmQ-15" source="-DVn-FwIMz4xGNtjaVsw-86" target="-DVn-FwIMz4xGNtjaVsw-92" edge="1">
          <mxGeometry width="50" height="50" relative="1" as="geometry">
            <mxPoint x="1333.88" y="350" as="sourcePoint" />
            <mxPoint x="1383.88" y="300" as="targetPoint" />
            <Array as="points">
              <mxPoint x="1438.5" y="310" />
            </Array>
          </mxGeometry>
        </mxCell>
        <mxCell id="-DVn-FwIMz4xGNtjaVsw-90" value="Inform client" style="rounded=1;whiteSpace=wrap;html=1;strokeWidth=1;fontSize=9;fillColor=none;" parent="htn3oL57G23V9cVcqPmQ-15" vertex="1">
          <mxGeometry x="1450.38" y="410" width="83.75" height="40" as="geometry" />
        </mxCell>
        <mxCell id="-DVn-FwIMz4xGNtjaVsw-95" value="" style="ellipse;whiteSpace=wrap;html=1;aspect=fixed;strokeWidth=1;fillColor=none;" parent="htn3oL57G23V9cVcqPmQ-15" vertex="1">
          <mxGeometry x="1560.38" y="418.75" width="22.5" height="22.5" as="geometry" />
        </mxCell>
        <mxCell id="-DVn-FwIMz4xGNtjaVsw-96" value="" style="endArrow=classic;html=1;rounded=0;fontSize=9;targetPerimeterSpacing=0;exitX=1;exitY=0.5;exitDx=0;exitDy=0;entryX=0;entryY=0.5;entryDx=0;entryDy=0;" parent="htn3oL57G23V9cVcqPmQ-15" source="-DVn-FwIMz4xGNtjaVsw-90" target="-DVn-FwIMz4xGNtjaVsw-95" edge="1">
          <mxGeometry width="50" height="50" relative="1" as="geometry">
            <mxPoint x="1615.38" y="420" as="sourcePoint" />
            <mxPoint x="1665.38" y="370" as="targetPoint" />
          </mxGeometry>
        </mxCell>
        <mxCell id="-DVn-FwIMz4xGNtjaVsw-97" value="Finish&lt;br&gt;process" style="text;html=1;align=center;verticalAlign=middle;resizable=0;points=[];autosize=1;strokeColor=none;fillColor=none;fontSize=9;" parent="htn3oL57G23V9cVcqPmQ-15" vertex="1">
          <mxGeometry x="1541.63" y="441.25" width="60" height="40" as="geometry" />
        </mxCell>
        <mxCell id="-DVn-FwIMz4xGNtjaVsw-109" value="" style="endArrow=classic;html=1;rounded=0;fontSize=9;targetPerimeterSpacing=0;exitX=1;exitY=0.5;exitDx=0;exitDy=0;entryX=0.5;entryY=0;entryDx=0;entryDy=0;" parent="htn3oL57G23V9cVcqPmQ-15" source="-DVn-FwIMz4xGNtjaVsw-92" target="-DVn-FwIMz4xGNtjaVsw-90" edge="1">
          <mxGeometry width="50" height="50" relative="1" as="geometry">
            <mxPoint x="1428.88" y="380" as="sourcePoint" />
            <mxPoint x="1478.88" y="330" as="targetPoint" />
            <Array as="points">
              <mxPoint x="1492.5" y="195" />
            </Array>
          </mxGeometry>
        </mxCell>
        <mxCell id="oFlLQU60bPr8UDns7WKE-5" value="" style="endArrow=classic;html=1;rounded=0;exitX=1;exitY=0.5;exitDx=0;exitDy=0;entryX=0;entryY=0.5;entryDx=0;entryDy=0;" parent="htn3oL57G23V9cVcqPmQ-15" source="-DVn-FwIMz4xGNtjaVsw-60" target="-DVn-FwIMz4xGNtjaVsw-84" edge="1">
          <mxGeometry width="50" height="50" relative="1" as="geometry">
            <mxPoint x="1198.5" y="240" as="sourcePoint" />
            <mxPoint x="1248.5" y="190" as="targetPoint" />
          </mxGeometry>
        </mxCell>
        <mxCell id="oFlLQU60bPr8UDns7WKE-8" value="" style="endArrow=classic;html=1;rounded=0;exitX=1;exitY=0.5;exitDx=0;exitDy=0;entryX=0;entryY=0.5;entryDx=0;entryDy=0;" parent="htn3oL57G23V9cVcqPmQ-15" source="-DVn-FwIMz4xGNtjaVsw-22" target="-DVn-FwIMz4xGNtjaVsw-44" edge="1">
          <mxGeometry width="50" height="50" relative="1" as="geometry">
            <mxPoint x="508.5" y="120" as="sourcePoint" />
            <mxPoint x="558.5" y="70" as="targetPoint" />
            <Array as="points">
              <mxPoint x="478.5" y="59" />
              <mxPoint x="508.5" y="59" />
              <mxPoint x="508.5" y="100" />
            </Array>
          </mxGeometry>
        </mxCell>
        <mxCell id="oFlLQU60bPr8UDns7WKE-9" value="no" style="text;html=1;align=center;verticalAlign=middle;resizable=0;points=[];autosize=1;strokeColor=none;fillColor=none;fontSize=9;" parent="htn3oL57G23V9cVcqPmQ-15" vertex="1">
          <mxGeometry x="467.25" y="40" width="30" height="20" as="geometry" />
        </mxCell>
        <mxCell id="w2w5SfIMontvGgBVjQMu-3" value="Send approval or&lt;br&gt;rejection letter to broker" style="rounded=1;whiteSpace=wrap;html=1;strokeWidth=1;fontSize=9;fillColor=none;" vertex="1" parent="htn3oL57G23V9cVcqPmQ-15">
          <mxGeometry x="531.63" y="23" width="83.75" height="40" as="geometry" />
        </mxCell>
        <mxCell id="w2w5SfIMontvGgBVjQMu-4" value="" style="endArrow=classic;html=1;rounded=0;exitX=0.5;exitY=0;exitDx=0;exitDy=0;entryX=0.881;entryY=1.006;entryDx=0;entryDy=0;entryPerimeter=0;" edge="1" parent="htn3oL57G23V9cVcqPmQ-15" source="-DVn-FwIMz4xGNtjaVsw-44" target="w2w5SfIMontvGgBVjQMu-3">
          <mxGeometry width="50" height="50" relative="1" as="geometry">
            <mxPoint x="678.5" y="90" as="sourcePoint" />
            <mxPoint x="605.5" y="70" as="targetPoint" />
          </mxGeometry>
        </mxCell>
        <mxCell id="w2w5SfIMontvGgBVjQMu-7" value="yes" style="text;html=1;align=center;verticalAlign=middle;resizable=0;points=[];autosize=1;strokeColor=none;fillColor=none;fontSize=9;" vertex="1" parent="htn3oL57G23V9cVcqPmQ-15">
          <mxGeometry x="760.38" y="38.75" width="40" height="20" as="geometry" />
        </mxCell>
        <mxCell id="UuxsRoWIycC9HAqe9e0P-5" value="" style="sketch=0;outlineConnect=0;fontColor=#232F3E;gradientColor=none;fillColor=#232F3D;strokeColor=none;dashed=0;verticalLabelPosition=bottom;verticalAlign=top;align=center;html=1;fontSize=12;fontStyle=0;aspect=fixed;pointerEvents=1;shape=mxgraph.aws4.user;" vertex="1" parent="htn3oL57G23V9cVcqPmQ-15">
          <mxGeometry x="185" y="41.75" width="7" height="7" as="geometry" />
        </mxCell>
        <mxCell id="UuxsRoWIycC9HAqe9e0P-6" value="" style="sketch=0;outlineConnect=0;fontColor=#232F3E;gradientColor=none;fillColor=#232F3D;strokeColor=none;dashed=0;verticalLabelPosition=bottom;verticalAlign=top;align=center;html=1;fontSize=12;fontStyle=0;aspect=fixed;pointerEvents=1;shape=mxgraph.aws4.user;" vertex="1" parent="htn3oL57G23V9cVcqPmQ-15">
          <mxGeometry x="334" y="41.75" width="7" height="7" as="geometry" />
        </mxCell>
        <mxCell id="UuxsRoWIycC9HAqe9e0P-7" value="" style="sketch=0;outlineConnect=0;fontColor=#232F3E;gradientColor=none;fillColor=#232F3D;strokeColor=none;dashed=0;verticalLabelPosition=bottom;verticalAlign=top;align=center;html=1;fontSize=12;fontStyle=0;aspect=fixed;pointerEvents=1;shape=mxgraph.aws4.user;" vertex="1" parent="htn3oL57G23V9cVcqPmQ-15">
          <mxGeometry x="533.63" y="25.25" width="7" height="7" as="geometry" />
        </mxCell>
        <mxCell id="UuxsRoWIycC9HAqe9e0P-8" value="" style="sketch=0;outlineConnect=0;fontColor=#232F3E;gradientColor=none;fillColor=#232F3D;strokeColor=none;dashed=0;verticalLabelPosition=bottom;verticalAlign=top;align=center;html=1;fontSize=12;fontStyle=0;aspect=fixed;pointerEvents=1;shape=mxgraph.aws4.user;" vertex="1" parent="htn3oL57G23V9cVcqPmQ-15">
          <mxGeometry x="651.5" y="41.75" width="7" height="7" as="geometry" />
        </mxCell>
        <mxCell id="UuxsRoWIycC9HAqe9e0P-11" value="" style="sketch=0;outlineConnect=0;fontColor=#232F3E;gradientColor=none;fillColor=#232F3D;strokeColor=none;dashed=0;verticalLabelPosition=bottom;verticalAlign=top;align=center;html=1;fontSize=12;fontStyle=0;aspect=fixed;pointerEvents=1;shape=mxgraph.aws4.user;" vertex="1" parent="htn3oL57G23V9cVcqPmQ-15">
          <mxGeometry x="1116" y="41.75" width="7" height="7" as="geometry" />
        </mxCell>
        <mxCell id="UuxsRoWIycC9HAqe9e0P-13" value="" style="sketch=0;outlineConnect=0;fontColor=#232F3E;gradientColor=none;fillColor=#232F3D;strokeColor=none;dashed=0;verticalLabelPosition=bottom;verticalAlign=top;align=center;html=1;fontSize=12;fontStyle=0;aspect=fixed;pointerEvents=1;shape=mxgraph.aws4.user;" vertex="1" parent="htn3oL57G23V9cVcqPmQ-15">
          <mxGeometry x="1319" y="293" width="7" height="7" as="geometry" />
        </mxCell>
        <mxCell id="UuxsRoWIycC9HAqe9e0P-18" value="" style="sketch=0;outlineConnect=0;fontColor=#232F3E;gradientColor=none;fillColor=#232F3D;strokeColor=none;dashed=0;verticalLabelPosition=bottom;verticalAlign=top;align=center;html=1;fontSize=12;fontStyle=0;aspect=fixed;pointerEvents=1;shape=mxgraph.aws4.gear;" vertex="1" parent="htn3oL57G23V9cVcqPmQ-15">
          <mxGeometry x="844" y="40.25" width="10" height="10" as="geometry" />
        </mxCell>
        <mxCell id="UuxsRoWIycC9HAqe9e0P-19" value="" style="sketch=0;outlineConnect=0;fontColor=#232F3E;gradientColor=none;fillColor=#232F3D;strokeColor=none;dashed=0;verticalLabelPosition=bottom;verticalAlign=top;align=center;html=1;fontSize=12;fontStyle=0;aspect=fixed;pointerEvents=1;shape=mxgraph.aws4.gear;" vertex="1" parent="htn3oL57G23V9cVcqPmQ-15">
          <mxGeometry x="1005" y="41.75" width="10" height="10" as="geometry" />
        </mxCell>
        <mxCell id="htn3oL57G23V9cVcqPmQ-2" value="Mortage dept." style="swimlane;horizontal=0;startSize=29;" parent="oFlLQU60bPr8UDns7WKE-2" vertex="1">
          <mxGeometry x="21.5" y="140" width="1608.5" height="110" as="geometry" />
        </mxCell>
        <mxCell id="-DVn-FwIMz4xGNtjaVsw-40" value="" style="endArrow=classic;html=1;rounded=0;fontSize=9;targetPerimeterSpacing=0;exitX=0.5;exitY=1;exitDx=0;exitDy=0;entryX=1;entryY=0.5;entryDx=0;entryDy=0;" parent="htn3oL57G23V9cVcqPmQ-2" edge="1">
          <mxGeometry width="50" height="50" relative="1" as="geometry">
            <mxPoint x="456.24" y="180" as="sourcePoint" />
            <mxPoint x="615.3700000000001" y="50" as="targetPoint" />
            <Array as="points">
              <mxPoint x="455.87" y="220" />
              <mxPoint x="668.87" y="220" />
              <mxPoint x="668.49" y="130" />
              <mxPoint x="668.87" y="50" />
            </Array>
          </mxGeometry>
        </mxCell>
        <mxCell id="UuxsRoWIycC9HAqe9e0P-12" value="" style="sketch=0;outlineConnect=0;fontColor=#232F3E;gradientColor=none;fillColor=#232F3D;strokeColor=none;dashed=0;verticalLabelPosition=bottom;verticalAlign=top;align=center;html=1;fontSize=12;fontStyle=0;aspect=fixed;pointerEvents=1;shape=mxgraph.aws4.user;" vertex="1" parent="htn3oL57G23V9cVcqPmQ-2">
          <mxGeometry x="1131.88" y="40" width="7" height="7" as="geometry" />
        </mxCell>
        <mxCell id="UuxsRoWIycC9HAqe9e0P-14" value="" style="sketch=0;outlineConnect=0;fontColor=#232F3E;gradientColor=none;fillColor=#232F3D;strokeColor=none;dashed=0;verticalLabelPosition=bottom;verticalAlign=top;align=center;html=1;fontSize=12;fontStyle=0;aspect=fixed;pointerEvents=1;shape=mxgraph.aws4.user;" vertex="1" parent="htn3oL57G23V9cVcqPmQ-2">
          <mxGeometry x="1398.5" y="40" width="7" height="7" as="geometry" />
        </mxCell>
        <mxCell id="UuxsRoWIycC9HAqe9e0P-16" value="" style="sketch=0;outlineConnect=0;fontColor=#232F3E;gradientColor=none;fillColor=#232F3D;strokeColor=none;dashed=0;verticalLabelPosition=bottom;verticalAlign=top;align=center;html=1;fontSize=12;fontStyle=0;aspect=fixed;pointerEvents=1;shape=mxgraph.aws4.user;" vertex="1" parent="htn3oL57G23V9cVcqPmQ-2">
          <mxGeometry x="498.5" y="33" width="7" height="7" as="geometry" />
        </mxCell>
        <mxCell id="UuxsRoWIycC9HAqe9e0P-20" value="" style="sketch=0;outlineConnect=0;fontColor=#232F3E;gradientColor=none;fillColor=#232F3D;strokeColor=none;dashed=0;verticalLabelPosition=bottom;verticalAlign=top;align=center;html=1;fontSize=12;fontStyle=0;aspect=fixed;pointerEvents=1;shape=mxgraph.aws4.gear;" vertex="1" parent="htn3oL57G23V9cVcqPmQ-2">
          <mxGeometry x="1232" y="37" width="10" height="10" as="geometry" />
        </mxCell>
        <mxCell id="-DVn-FwIMz4xGNtjaVsw-26" value="Â Insurance dept." style="swimlane;horizontal=0;startSize=29;" parent="oFlLQU60bPr8UDns7WKE-2" vertex="1">
          <mxGeometry x="21.5" y="250" width="1608.5" height="120" as="geometry" />
        </mxCell>
        <mxCell id="-DVn-FwIMz4xGNtjaVsw-33" value="Amount &amp;gt; 90%&lt;br&gt;of cost?" style="text;html=1;align=center;verticalAlign=middle;resizable=0;points=[];autosize=1;strokeColor=none;fillColor=none;fontSize=9;" parent="-DVn-FwIMz4xGNtjaVsw-26" vertex="1">
          <mxGeometry x="375.87" y="40" width="80" height="40" as="geometry" />
        </mxCell>
        <mxCell id="oFlLQU60bPr8UDns7WKE-3" value="&lt;div style=&quot;font-size: 9px;&quot;&gt;&lt;br style=&quot;font-size: 9px;&quot;&gt;&lt;/div&gt;&lt;div style=&quot;font-size: 9px;&quot;&gt;deed&lt;/div&gt;" style="text;html=1;align=center;verticalAlign=middle;resizable=0;points=[];autosize=1;strokeColor=none;fillColor=none;fontSize=9;" parent="-DVn-FwIMz4xGNtjaVsw-26" vertex="1">
          <mxGeometry x="1115.38" y="50" width="40" height="40" as="geometry" />
        </mxCell>
        <mxCell id="oFlLQU60bPr8UDns7WKE-4" value="signed&lt;div style=&quot;font-size: 9px;&quot;&gt;deed&lt;/div&gt;" style="text;html=1;align=center;verticalAlign=middle;resizable=0;points=[];autosize=1;strokeColor=none;fillColor=none;fontSize=9;" parent="-DVn-FwIMz4xGNtjaVsw-26" vertex="1">
          <mxGeometry x="1215" y="60" width="50" height="40" as="geometry" />
        </mxCell>
        <mxCell id="UuxsRoWIycC9HAqe9e0P-17" value="" style="sketch=0;outlineConnect=0;fontColor=#232F3E;gradientColor=none;fillColor=#232F3D;strokeColor=none;dashed=0;verticalLabelPosition=bottom;verticalAlign=top;align=center;html=1;fontSize=12;fontStyle=0;aspect=fixed;pointerEvents=1;shape=mxgraph.aws4.user;" vertex="1" parent="-DVn-FwIMz4xGNtjaVsw-26">
          <mxGeometry x="498.5" y="43" width="7" height="7" as="geometry" />
        </mxCell>
        <mxCell id="-DVn-FwIMz4xGNtjaVsw-89" value="Finantial dept." style="swimlane;horizontal=0;startSize=29;" parent="oFlLQU60bPr8UDns7WKE-2" vertex="1">
          <mxGeometry x="21.5" y="370" width="1608.5" height="120" as="geometry" />
        </mxCell>
        <mxCell id="UuxsRoWIycC9HAqe9e0P-15" value="" style="sketch=0;outlineConnect=0;fontColor=#232F3E;gradientColor=none;fillColor=#232F3D;strokeColor=none;dashed=0;verticalLabelPosition=bottom;verticalAlign=top;align=center;html=1;fontSize=12;fontStyle=0;aspect=fixed;pointerEvents=1;shape=mxgraph.aws4.user;" vertex="1" parent="-DVn-FwIMz4xGNtjaVsw-89">
          <mxGeometry x="1455" y="44" width="7" height="7" as="geometry" />
        </mxCell>
        <mxCell id="w2w5SfIMontvGgBVjQMu-2" value="" style="endArrow=classic;html=1;rounded=0;exitX=0.5;exitY=1;exitDx=0;exitDy=0;entryX=0.5;entryY=0;entryDx=0;entryDy=0;dashed=1;" edge="1" parent="1" source="w2w5SfIMontvGgBVjQMu-1" target="-DVn-FwIMz4xGNtjaVsw-9">
          <mxGeometry width="50" height="50" relative="1" as="geometry">
            <mxPoint x="290" y="-3130" as="sourcePoint" />
            <mxPoint x="340" y="-3180" as="targetPoint" />
          </mxGeometry>
        </mxCell>
        <mxCell id="w2w5SfIMontvGgBVjQMu-6" value="" style="endArrow=classic;html=1;rounded=0;exitX=0.444;exitY=-0.035;exitDx=0;exitDy=0;exitPerimeter=0;dashed=1;" edge="1" parent="1" source="-DVn-FwIMz4xGNtjaVsw-43">
          <mxGeometry width="50" height="50" relative="1" as="geometry">
            <mxPoint x="700" y="-3240" as="sourcePoint" />
            <mxPoint x="705" y="-3430" as="targetPoint" />
          </mxGeometry>
        </mxCell>
        <mxCell id="w2w5SfIMontvGgBVjQMu-8" value="" style="endArrow=classic;html=1;rounded=0;entryX=0.75;entryY=0;entryDx=0;entryDy=0;dashed=1;" edge="1" parent="1" target="-DVn-FwIMz4xGNtjaVsw-43">
          <mxGeometry width="50" height="50" relative="1" as="geometry">
            <mxPoint x="731" y="-3430" as="sourcePoint" />
            <mxPoint x="800" y="-3240" as="targetPoint" />
          </mxGeometry>
        </mxCell>
      </root>
    </mxGraphModel>
  </diagram>
</mxfile>
